<svg width="5" height="8" viewBox="0 0 5 8" fill="none" xmlns="http://www.w3.org/2000/svg">
<path d="M0.889431 7.47384C0.790774 7.3714 0.735352 7.23248 0.735352 7.08762C0.735352 6.94277 0.790774 6.80384 0.889431 6.7014L3.49439 3.9973L0.889431 1.29319C0.79357 1.19016 0.740527 1.05217 0.741726 0.908937C0.742925 0.765704 0.79827 0.628689 0.895842 0.527403C0.993414 0.426118 1.1254 0.368667 1.26339 0.367422C1.40137 0.366177 1.5343 0.421239 1.63355 0.52075L4.61057 3.61107C4.70923 3.71352 4.76465 3.85244 4.76465 3.9973C4.76465 4.14215 4.70923 4.28108 4.61057 4.38352L1.63355 7.47384C1.53487 7.57626 1.40104 7.63379 1.26149 7.63379C1.12195 7.63379 0.988119 7.57626 0.889431 7.47384Z" fill="#B1A27B"/>
</svg>
