<svg width="7" height="5" viewBox="0 0 7 5" fill="none" xmlns="http://www.w3.org/2000/svg">
<path d="M0.154081 0.174833C0.252768 0.0761751 0.3866 0.020752 0.526144 0.020752C0.665688 0.020752 0.79952 0.0761751 0.898207 0.174833L3.50318 2.77981L6.10815 0.174833C6.2074 0.0789711 6.34033 0.025927 6.47832 0.0271261C6.6163 0.0283251 6.74829 0.0836713 6.84586 0.181244C6.94344 0.278816 6.99878 0.410809 6.99998 0.548792C7.00118 0.686775 6.94814 0.819709 6.85227 0.918963L3.87524 3.89601C3.77655 3.99466 3.64272 4.05009 3.50318 4.05009C3.36363 4.05009 3.2298 3.99466 3.13111 3.89601L0.154081 0.918963C0.0554229 0.820274 0 0.686443 0 0.546898C0 0.407353 0.0554229 0.273521 0.154081 0.174833Z" fill="#2F3658"/>
</svg>
