<svg width="7" height="13" viewBox="0 0 7 13" fill="none" xmlns="http://www.w3.org/2000/svg">
<path d="M6.64211 0.516153C6.81124 0.685332 6.90625 0.914757 6.90625 1.15398C6.90625 1.39319 6.81124 1.62262 6.64211 1.7918L2.17645 6.25746L6.64211 10.7231C6.80645 10.8933 6.89738 11.1212 6.89532 11.3577C6.89327 11.5942 6.79839 11.8205 6.63112 11.9878C6.46386 12.155 6.23758 12.2499 6.00104 12.252C5.7645 12.254 5.53661 12.1631 5.36647 11.9988L0.26298 6.89528C0.093853 6.7261 -0.00115776 6.49668 -0.00115776 6.25746C-0.00115776 6.01824 0.093853 5.78882 0.26298 5.61964L5.36647 0.516153C5.53564 0.347025 5.76507 0.252014 6.00429 0.252014C6.24351 0.252014 6.47293 0.347025 6.64211 0.516153Z" fill="#7E7E7E"/>
</svg>
