<svg width="698" height="811" viewBox="0 0 698 811" fill="none" xmlns="http://www.w3.org/2000/svg">
<g clip-path="url(#clip0_82_2425)">
<path fill-rule="evenodd" clip-rule="evenodd" d="M545.68 87.2152C534.61 88.0757 523.562 88.9208 512.536 89.7505C520.905 95.3873 529.288 101.026 537.685 106.667C548.732 105.817 559.775 104.972 570.813 104.131C562.444 98.4808 554.033 92.8575 545.68 87.2152ZM547.488 84.5411C544.074 73.9554 540.674 63.4042 537.288 52.8875C545.68 58.508 554.079 64.1612 562.444 69.7709C565.833 80.3003 569.232 90.856 572.642 101.438C564.232 95.7795 555.847 90.1453 547.488 84.5357V84.5411ZM576.685 113.679C565.6 112.93 554.585 112.189 543.516 111.437C551.033 118.213 558.526 124.988 565.994 131.763C577.065 132.52 588.117 133.27 599.149 134.012C591.682 127.259 584.177 120.44 576.685 113.679ZM578.863 111.274C577.026 100.333 575.168 89.4046 573.287 78.4903C580.817 85.26 588.321 92.0315 595.798 98.8049C597.64 109.741 599.498 120.671 601.371 131.594C593.855 124.813 586.376 118.03 578.863 111.274ZM604.123 143.81C593.303 141.495 582.473 139.17 571.632 136.833C578.104 144.603 584.552 152.389 590.977 160.19C601.816 162.484 612.657 164.804 623.501 167.15C617.045 159.358 610.586 151.578 604.123 143.81ZM606.655 141.724C606.408 130.65 606.136 119.576 605.838 108.502C612.263 116.263 618.745 124.051 625.167 131.834C625.435 142.917 625.708 153.999 625.983 165.08C619.539 157.307 613.09 149.522 606.639 141.727L606.655 141.724ZM627.617 177.125C617.214 173.281 606.829 169.436 596.463 165.587C601.709 174.199 606.96 182.815 612.214 191.435C622.64 195.329 633.03 199.197 643.382 203.038C638.137 194.411 632.882 185.773 627.617 177.125ZM630.396 175.445C631.73 164.451 633.064 153.425 634.379 142.454C639.63 151.053 644.871 159.716 650.144 168.324C648.837 179.333 647.484 190.313 646.169 201.344C640.88 192.687 635.659 184.074 630.396 175.439V175.445ZM646.368 213.143C636.404 208.285 626.444 203.437 616.488 198.599C620.868 207.697 625.289 216.795 629.675 225.88C639.63 230.765 649.592 235.619 659.563 240.443C655.171 231.353 650.773 222.253 646.368 213.143ZM649.278 211.738C651.704 200.887 654.097 190.09 656.487 179.243C660.894 188.382 665.307 197.461 669.679 206.589C667.276 217.392 664.866 228.238 662.49 239.043C658.118 229.913 653.71 220.839 649.278 211.738ZM660.532 251.414C651.385 245.126 642.251 238.848 633.13 232.581C636.148 242.203 639.149 251.864 642.135 261.563C651.271 267.808 660.415 274.072 669.568 280.353C666.535 270.702 663.523 261.057 660.532 251.417V251.414ZM663.655 250.439C667.6 240.092 671.563 229.744 675.543 219.396C678.576 229.022 681.532 238.686 684.541 248.313C680.59 258.69 676.63 269.038 672.663 279.356C669.641 269.722 666.639 260.078 663.655 250.423V250.439ZM669.606 290.992C661.15 283.818 652.689 276.657 644.223 269.509C646.243 279.424 648.271 289.296 650.286 299.23C658.766 306.381 667.199 313.532 675.674 320.696C673.635 310.798 671.62 300.866 669.606 290.992ZM672.794 290.35C677.781 280.425 682.766 270.519 687.747 260.632C689.757 270.532 691.784 280.437 693.829 290.35C688.817 300.243 683.865 310.144 678.875 320.032C676.864 310.133 674.814 300.232 672.794 290.35ZM673.493 331.616C666.225 323.265 658.946 314.904 651.658 306.533C652.178 316.625 652.659 326.739 653.158 336.833C660.448 345.166 667.73 353.559 675.012 361.886C674.536 351.783 674 341.705 673.493 331.629V331.616ZM676.76 331.433C683.179 322.4 689.597 313.37 696.012 304.344C696.524 314.436 697.009 324.495 697.534 334.614C691.074 343.663 684.693 352.679 678.279 361.725C677.754 351.65 677.272 341.536 676.76 331.433ZM672.331 372.226C665.95 363.167 659.56 354.111 653.16 345.057C652.638 355.133 652.118 365.268 651.6 375.371C657.979 384.382 664.36 393.442 670.774 402.469C671.275 392.393 671.814 382.318 672.331 372.226ZM675.598 372.384C682.894 364.048 690.219 355.699 697.485 347.353C696.988 357.472 696.472 367.571 695.936 377.65C688.64 385.99 681.335 394.324 674.021 402.651C674.566 392.554 675.075 382.5 675.598 372.384ZM665.909 412.476C660.943 402.579 655.98 392.69 651.018 382.811C648.982 392.679 646.94 402.568 644.893 412.476C649.855 422.37 654.825 432.28 659.806 442.205C661.834 432.314 663.889 422.383 665.909 412.476ZM669.1 413.146C677.561 406.019 686.036 398.883 694.526 391.74C692.46 401.638 690.456 411.529 688.404 421.444C679.921 428.587 671.451 435.731 662.993 442.875C665.035 432.962 667.071 423.053 669.1 413.146ZM654.445 451.673C651.01 441.113 647.572 430.572 644.133 420.049C640.638 429.537 637.161 439.017 633.704 448.49C637.101 459.042 640.559 469.575 643.978 480.097C647.465 470.634 650.928 461.139 654.445 451.673ZM657.489 452.798C666.95 446.988 676.399 441.193 685.836 435.411C682.319 444.863 678.851 454.334 675.355 463.865C665.918 469.656 656.481 475.451 647.043 481.252C650.52 471.767 654.018 462.255 657.483 452.798H657.489ZM637.956 488.792C635.563 477.94 633.203 467.119 630.799 456.308C626.394 465.362 621.984 474.515 617.591 483.618C619.983 494.421 622.393 505.232 624.745 516.07C629.164 506.971 633.568 497.878 637.956 488.792ZM640.894 490.181C650.863 485.345 660.821 480.47 670.771 475.645C666.38 484.729 662 493.852 657.606 502.939C647.624 507.782 637.657 512.638 627.704 517.505C632.106 508.363 636.502 499.292 640.894 490.181ZM616.877 523.632C616.055 512.607 615.249 501.556 614.46 490.48C608.797 498.851 603.162 507.206 597.467 515.577C598.267 526.635 599.046 537.686 599.882 548.742C605.541 540.378 611.206 532.008 616.877 523.632ZM619.575 525.483C630.13 522.132 640.69 518.774 651.255 515.408C645.587 523.765 639.905 532.158 634.251 540.515C623.665 543.852 613.101 547.21 602.561 550.591C608.226 542.168 613.907 533.843 619.575 525.473V525.483ZM591.666 555.468C591.909 544.376 592.172 533.291 592.455 522.213C585.982 530.005 579.539 537.793 573.127 545.577C572.851 556.651 572.586 567.735 572.332 578.829C578.76 571.01 585.203 563.223 591.66 555.468H591.666ZM594.151 557.532C604.983 555.223 615.818 552.856 626.637 550.555C620.21 558.316 613.768 566.102 607.308 573.914C596.504 576.218 585.672 578.543 574.812 580.888C581.268 573.111 587.71 565.326 594.14 557.532H594.151ZM562.363 583.813C564.178 572.882 566.013 561.954 567.87 551.029C560.38 557.811 552.888 564.589 545.395 571.363C543.567 582.313 541.731 593.251 539.887 604.176C547.354 597.398 554.846 590.61 562.363 583.813ZM564.562 586.228C575.569 585.471 586.643 584.72 597.704 583.943C590.223 590.735 582.701 597.524 575.234 604.307C564.163 605.086 553.108 605.847 542.068 606.592C549.56 599.795 557.058 593.007 564.562 586.228ZM529.747 608.269C533.137 597.714 536.529 587.166 539.923 576.624C531.527 582.252 523.141 587.89 514.766 593.54C511.347 604.086 507.993 614.633 504.576 625.193C512.972 619.54 521.346 613.928 529.747 608.269ZM531.543 610.973C542.601 611.79 553.624 612.651 564.688 613.484C556.314 619.14 547.91 624.752 539.533 630.424C528.497 629.586 517.454 628.742 506.403 627.892C514.79 622.247 523.183 616.64 531.543 610.973ZM494.452 628.347C498.846 618.146 503.243 607.98 507.644 597.848C498.751 602.631 489.858 607.428 480.965 612.237C476.557 622.403 472.164 632.569 467.787 642.736L494.446 628.347H494.452ZM496.012 631.225C506.901 633.131 517.845 635.024 528.758 636.897C519.851 641.732 510.958 646.543 502.08 651.33C491.141 649.418 480.221 647.519 469.319 645.633C478.194 640.813 487.087 636.01 495.998 631.222L496.012 631.225ZM456.658 643.654C462.5 634.248 468.334 624.837 474.16 615.42C464.7 618.87 455.171 622.304 445.698 625.749C439.815 635.157 434.008 644.56 428.161 653.999C437.645 650.531 447.144 647.082 456.658 643.651V643.654ZM457.779 646.722C468.277 650.215 478.793 653.693 489.328 657.155C479.827 660.644 470.325 664.093 460.82 667.503C450.323 664.02 439.785 660.515 429.241 657.07C438.748 653.623 448.262 650.148 457.771 646.722H457.779ZM511.553 76.2628L489.296 50.0364L522.756 58.026L545.008 84.2606L511.559 76.2628H511.553ZM408.519 21.6914C435.349 26.2791 461.493 34.2392 486.328 45.3826L483.124 50.1426C459.287 39.5344 434.235 31.9031 408.533 27.4208V21.7022L408.519 21.6914ZM408.519 45.4969C444.528 52.1617 479.015 65.3591 510.277 84.4376L507.138 89.116C476.82 70.6412 443.408 57.8116 408.519 51.2482V45.4969ZM408.519 0.519043C453.401 7.71204 496.414 23.7303 535.072 47.6482L531.922 52.3102C494.198 29.0197 452.271 13.3609 408.519 6.22127V0.519043V0.519043Z" fill="#F5F5F7"/>
<path fill-rule="evenodd" clip-rule="evenodd" d="M151.906 87.2152C162.938 88.0757 173.994 88.9208 185.074 89.7505C176.648 95.3873 168.251 101.026 159.885 106.667C148.836 105.817 137.79 104.972 126.749 104.131C135.121 98.4817 143.506 92.843 151.906 87.2152ZM150.073 84.5411C153.489 73.9554 156.884 63.4042 160.258 52.8875C151.876 58.508 143.483 64.1612 135.109 69.7709C131.714 80.3067 128.289 90.8778 124.933 101.438C133.308 95.7795 141.689 90.1453 150.073 84.5357V84.5411ZM120.871 113.679C131.942 112.931 142.986 112.184 154.004 111.437C146.52 118.213 139.036 124.991 131.553 131.774C120.483 132.531 109.43 133.281 98.3957 134.023C105.887 127.27 113.355 120.451 120.868 113.689L120.871 113.679ZM118.68 111.274C120.551 100.333 122.4 89.4046 124.228 78.4903C116.75 85.26 109.264 92.0315 101.769 98.8049C99.8884 109.741 98.0345 120.671 96.2069 131.594C103.695 124.813 111.186 118.04 118.68 111.274ZM93.4056 143.81C104.23 141.495 115.094 139.151 125.916 136.833C119.473 144.603 113.022 152.389 106.563 160.19C95.7496 162.485 84.8929 164.819 74.0608 167.15C80.5273 159.36 86.9755 151.58 93.4056 143.81ZM90.9256 141.724C91.1706 130.65 91.4301 119.576 91.7042 108.502C85.285 116.263 78.8421 124.04 72.3757 131.834C72.1035 142.917 71.8313 153.999 71.559 165.08C78.03 157.306 84.4574 149.509 90.9202 141.727L90.9256 141.724ZM69.9447 177.125C80.3022 173.291 90.6788 169.448 101.074 165.598C95.8312 174.21 90.5781 182.826 85.3149 191.446C74.9302 195.34 64.55 199.207 54.1743 203.049C59.4102 194.422 64.6598 185.784 69.9229 177.136L69.9447 177.125ZM67.1625 175.445C65.8367 164.451 64.4783 153.425 63.1824 142.454C57.9393 151.053 52.658 159.716 47.393 168.324C48.7242 179.333 50.0527 190.313 51.403 201.344C56.6571 192.688 61.9111 184.053 67.1652 175.439L67.1625 175.445ZM51.1607 213.154C61.108 208.296 71.0717 203.448 81.0518 198.61C76.6253 207.708 72.275 216.806 67.854 225.89C57.9284 230.776 47.9456 235.607 37.9847 240.454C42.3567 231.364 46.775 222.269 51.1607 213.154ZM48.2451 211.749C45.8576 200.898 43.4402 190.1 41.0745 179.254C36.6535 188.393 32.2651 197.472 27.8359 206.6C30.2478 217.402 32.6761 228.249 35.0282 239.054C39.4384 229.923 43.8131 220.85 48.2451 211.749ZM36.9883 251.425C46.1607 245.137 55.3013 238.859 64.4102 232.592C61.4157 242.218 58.3912 251.891 55.3939 261.574C46.2632 267.819 37.1335 274.083 28.0046 280.364C31.001 270.713 33.9956 261.068 36.9883 251.428V251.425ZM33.8794 250.45C29.9457 240.102 25.952 229.755 21.9965 219.407C18.9774 229.036 15.9611 238.7 12.9911 248.324C16.9638 258.701 20.9194 269.048 24.8576 279.367C27.8867 269.746 30.8939 260.107 33.8794 250.45ZM27.9311 291.003C36.403 283.829 44.8612 276.668 53.3059 269.52C51.2914 279.435 49.2741 289.307 47.2569 299.241C38.7832 306.392 30.3241 313.547 21.8794 320.707C23.9048 310.808 25.8948 300.877 27.9311 291.003ZM24.7379 290.36C19.7324 280.436 14.7578 270.53 9.81411 260.643C7.80776 270.542 5.73063 280.462 3.73517 290.36C8.7152 300.255 13.6952 310.149 18.6753 320.043C20.688 310.143 22.7088 300.249 24.7379 290.36ZM24.0382 331.627C31.3232 323.269 38.6299 314.907 45.8739 306.544C45.3803 316.636 44.8794 326.736 44.3712 336.844C37.0945 345.177 29.834 353.57 22.5301 361.897C23.0328 351.794 23.5355 341.709 24.0382 331.64V331.627ZM20.7714 331.444C14.3377 322.411 7.91393 313.381 1.50014 304.355C1.02374 314.447 0.492887 324.506 -0.0107422 334.625C6.43843 343.674 12.8223 352.69 19.2524 361.736C19.7551 351.661 20.2615 341.563 20.7714 331.444ZM25.2197 372.226C31.6117 363.167 38.0064 354.111 44.4039 345.057C44.9239 355.133 45.4465 365.268 45.9856 375.371C39.5936 384.382 33.1907 393.442 26.7687 402.469C26.2551 392.393 25.7388 382.312 25.2197 372.226ZM21.9529 372.384C14.6499 364.051 7.35222 355.708 0.0600381 347.356C0.564575 357.475 1.08907 367.574 1.63354 377.653C8.94569 385.993 16.2506 394.327 23.5482 402.654C23.0037 392.557 22.4892 382.503 21.9638 372.387L21.9529 372.384ZM31.6553 412.476C36.6063 402.579 41.5672 392.69 46.5382 382.811C48.5672 392.679 50.6099 402.568 52.6661 412.476C47.6825 422.372 42.7288 432.283 37.805 442.21C35.736 432.32 33.6834 422.389 31.6553 412.482V412.476ZM28.4511 413.146C19.9883 406.017 11.5183 398.883 3.04098 391.742C5.08635 401.64 7.12809 411.541 9.16619 421.446C17.6145 428.59 26.0836 435.734 34.5736 442.877C32.5428 432.965 30.5019 423.056 28.4511 413.149V413.146ZM43.1162 451.67C46.5409 441.11 49.9701 430.569 53.4039 420.047C56.9157 429.534 60.4084 439.014 63.8821 448.487C60.4465 459.04 57.0137 469.576 53.5836 480.094C50.0609 470.632 46.5718 461.158 43.1162 451.67ZM40.0536 452.795C30.6271 446.986 21.1898 441.19 11.7415 435.408C15.217 444.861 18.7034 454.345 22.2007 463.862C31.638 469.653 41.0818 475.449 50.5318 481.249C47.0146 471.764 43.5436 462.252 40.0536 452.795ZM59.5808 488.789C61.9783 477.939 64.3712 467.11 66.7596 456.305C71.1752 465.359 75.5636 474.512 79.971 483.615C77.5808 494.419 75.1824 505.236 72.7759 516.067C68.3912 506.968 63.9928 497.875 59.5808 488.789ZM56.6652 490.178C46.6634 485.342 36.7569 480.467 26.7469 475.642C31.1571 484.726 35.5509 493.849 39.9529 502.936C49.9275 507.78 59.9102 512.636 69.8222 517.502C65.4665 508.36 61.0427 499.29 56.6652 490.178ZM80.6897 523.632C81.49 512.607 82.2913 501.556 83.0935 490.48C88.7505 498.851 94.4165 507.217 100.092 515.577C99.3158 526.635 98.48 537.686 97.7069 548.742C92.03 540.378 86.3576 532.008 80.6897 523.632ZM78.0245 525.483C67.4365 522.132 56.8685 518.774 46.3204 515.408C51.9774 523.765 57.648 532.158 63.3077 540.515C73.8921 543.852 84.451 547.21 94.9846 550.591C89.3385 542.168 83.687 533.843 78.0245 525.473V525.483ZM105.92 555.468C105.65 544.376 105.39 533.291 105.142 522.213C111.583 530.005 118.025 537.793 124.47 545.577C124.71 556.655 124.995 567.741 125.262 578.829C118.821 571.01 112.374 563.223 105.92 555.468ZM103.413 557.532C92.5944 555.223 81.7623 552.856 70.9302 550.555C77.3548 558.316 83.7913 566.102 90.2396 573.914C101.058 576.218 111.891 578.543 122.739 580.888C116.276 573.111 109.833 565.326 103.41 557.532H103.413ZM135.193 583.813C133.364 572.882 131.528 561.954 129.686 551.029C137.181 557.811 144.67 564.589 152.151 571.363C154.002 582.312 155.818 593.24 157.707 604.176C150.21 597.405 142.705 590.617 135.193 583.813ZM133.015 586.228C121.974 585.471 110.927 584.71 99.8766 583.943C107.347 590.735 114.832 597.523 122.333 604.307C133.389 605.086 144.449 605.847 155.513 606.592C148.017 599.795 140.518 593.007 133.015 586.228ZM167.818 608.269C164.431 597.714 161.044 587.166 157.658 576.624C166.026 582.252 174.449 587.889 182.798 593.54C186.207 604.086 189.596 614.637 192.966 625.193C184.598 619.54 176.202 613.928 167.818 608.269ZM165.996 610.973C154.976 611.79 143.91 612.651 132.882 613.484C141.259 619.14 149.649 624.752 158.023 630.424C169.053 629.586 180.109 628.742 191.189 627.892C182.749 622.247 174.392 616.64 165.996 610.973ZM203.137 628.347C198.694 618.146 194.333 607.994 189.909 597.848C198.802 602.631 207.695 607.428 216.588 612.237C220.989 622.403 225.395 632.569 229.807 642.736C220.9 637.956 212.007 633.159 203.129 628.347H203.137ZM201.561 631.225C190.651 633.144 179.742 635.035 168.833 636.897C177.716 641.731 186.629 646.526 195.487 651.33C206.411 649.418 217.328 647.519 228.239 645.633C219.34 640.813 210.482 636.01 201.561 631.222V631.225ZM240.92 643.654C235.069 634.248 229.226 624.837 223.391 615.42C232.868 618.859 242.369 622.3 251.894 625.743C257.712 635.153 263.555 644.569 269.423 653.993C259.925 650.526 250.424 647.076 240.92 643.645V643.654ZM239.809 646.722C229.283 650.215 218.765 653.693 208.255 657.155C217.758 660.643 227.229 664.077 236.752 667.503C247.274 664.02 257.796 660.515 268.315 657.07C258.786 653.623 249.258 650.148 239.809 646.722ZM186.011 76.2628L208.258 50.0364L174.808 58.026L152.548 84.2606L186.011 76.2628ZM289.021 21.6914C262.194 26.2854 236.054 34.2452 211.219 45.3826L214.415 50.1426C238.259 39.5397 263.315 31.9086 289.021 27.4208V21.7022V21.6914ZM289.021 45.4969C253.015 52.1682 218.531 65.3652 187.268 84.4376L190.437 89.116C220.744 70.644 254.144 57.8144 289.021 51.2482V45.4969ZM289.021 0.519043C244.15 7.71312 201.149 23.7314 162.504 47.6482L165.648 52.3102C203.362 29.0217 245.278 13.3628 289.021 6.22127V0.519043V0.519043Z" fill="#F5F5F7"/>
<path d="M348.773 72.0972C423.191 72.0972 490.576 102.272 539.336 151.068C588.095 199.864 618.283 267.255 618.283 341.687C618.283 416.118 588.117 483.491 539.336 532.305C490.554 581.12 423.191 611.276 348.773 611.276C274.356 611.276 206.995 581.101 158.227 532.305C109.459 483.51 79.2798 416.096 79.2798 341.687C79.2798 267.277 109.462 199.85 158.227 151.068C206.992 102.286 274.375 72.0972 348.773 72.0972ZM532.543 157.876C485.51 110.806 420.528 81.6962 348.787 81.6962C277.045 81.6962 212.036 110.804 165.003 157.881C117.988 204.899 88.8651 269.9 88.8651 341.692C88.8651 413.441 117.994 478.456 165.003 525.519C212.012 572.583 277.01 601.664 348.773 601.664C420.536 601.664 485.51 572.57 532.543 525.519C579.577 478.469 608.689 413.441 608.689 341.692C608.689 269.891 579.596 204.89 532.543 157.881V157.876Z" fill="#F5F5F7"/>
<path d="M443.656 670.304C381.65 688.117 315.884 688.117 253.877 670.304L270.797 664.689C272.222 664.229 273.49 663.376 274.453 662.229C275.416 661.081 276.036 659.684 276.241 658.2C277.024 656.927 277.438 655.462 277.438 653.968C277.438 652.474 277.024 651.009 276.241 649.737L264.982 631.573C319.743 647.371 377.853 647.371 432.614 631.573L421.333 649.737C420.307 652.466 420.29 655.472 421.283 658.214C422.277 660.955 424.217 663.252 426.753 664.689L443.656 670.304Z" fill="#F5F5F7"/>
</g>
<path d="M495.412 230.367C470.165 229.896 444.205 245.756 418.26 258.596C390.677 272.255 348.285 273.09 348.27 273.09C348.255 273.09 305.863 272.225 278.28 258.596C252.335 245.756 226.375 229.896 201.128 230.367C175.881 230.837 153.73 247.669 154.519 275.428C155.308 303.186 173.226 313.947 196.455 314.099C219.684 314.251 230.745 298.512 229.334 282.91C227.923 267.308 214.419 263.422 205.179 264.515C195.939 265.608 188.338 271.694 194.422 288.222C194.422 288.222 176.215 287.903 179.765 267.475C183.316 247.046 215.466 256.411 227.938 261.237C241.259 266.412 246.797 274.183 282.649 284.321C301.493 289.648 348.27 289.224 348.27 289.224C348.27 289.224 395.046 289.648 413.89 284.321C449.743 274.183 455.281 266.412 468.602 261.237C481.074 256.411 513.178 247.046 516.774 267.475C520.37 287.903 502.118 288.222 502.118 288.222C508.187 271.694 500.6 265.608 491.361 264.515C482.121 263.422 468.602 267.323 467.206 282.91C465.81 298.497 476.901 314.251 500.085 314.099C523.268 313.947 541.247 303.186 542.021 275.428C542.795 247.669 520.674 230.776 495.412 230.367Z" fill="#F5F5F7"/>
<g clip-path="url(#clip1_82_2425)">
<path fill-rule="evenodd" clip-rule="evenodd" d="M303.724 194.482V243.253H322.013V194.482H303.724ZM315.917 237.156H309.692V224.836H315.917V237.156ZM316.045 218.867H309.698V206.547H316.045V218.867Z" fill="#F5F5F7"/>
<path fill-rule="evenodd" clip-rule="evenodd" d="M358.588 176.192V163.999H352.492V145.71H346.395V163.999H340.299V176.192H328.106V243.251H370.781V176.192H358.588ZM340.299 237.155H334.203V224.962H340.299V237.155ZM340.299 219.122H334.203V206.673H340.299V219.122ZM340.299 200.833H334.203V188.384H340.299V200.833ZM352.492 237.155H346.395V224.962H352.492V237.155ZM352.492 219.122H346.395V206.673H352.492V219.122ZM352.492 200.833H346.395V188.384H352.492V200.833ZM364.684 237.155H358.588V224.962H364.684V237.155ZM364.684 219.122H358.588V206.673H364.684V219.122ZM364.684 200.833H358.588V188.384H364.684V200.833Z" fill="#F5F5F7"/>
<path fill-rule="evenodd" clip-rule="evenodd" d="M376.885 188.385V243.252H401.271V212.77L376.885 188.385ZM389.267 237.533H382.982V230.864H389.267V237.533ZM389.267 225.341H382.982V218.671H389.267V225.341ZM389.267 213.148H382.982V206.479H389.267V213.148Z" fill="#F5F5F7"/>
</g>
<path d="M461.64 418.307H533.299C533.299 418.307 531.903 444.275 498.691 444.275C465.479 444.275 461.64 418.307 461.64 418.307Z" fill="#F5F5F7"/>
<path d="M533.3 406.852H461.869V412.695H533.3V406.852Z" fill="#F5F5F7"/>
<path d="M468.302 401.011L497.478 337.161L526.989 401.011H532.602L497.585 322.348L461.869 401.011H468.302Z" fill="#F5F5F7"/>
<path d="M164.235 418.307H235.894C235.894 418.307 234.498 444.275 201.286 444.275C168.074 444.275 164.235 418.307 164.235 418.307Z" fill="#F5F5F7"/>
<path d="M235.888 406.852H164.457V412.695H235.888V406.852Z" fill="#F5F5F7"/>
<path d="M170.89 401.011L200.051 337.161L229.576 401.011H235.19L200.172 322.348L164.457 401.011H170.89Z" fill="#F5F5F7"/>
<path d="M371.741 318.221H384.259V297.96H352.245V313.972H328.758V297.96H312.281V318.221H324.798C324.798 318.221 335.616 376.851 284.212 411.47C284.212 411.47 329.866 486.308 334.599 518.741L339.333 551.175H343.293V432.96C340.76 431.821 338.694 429.848 337.44 427.369C336.186 424.891 335.819 422.057 336.402 419.341C336.984 416.624 338.48 414.19 340.64 412.443C342.799 410.697 345.493 409.744 348.27 409.744C351.047 409.744 353.74 410.697 355.9 412.443C358.06 414.19 359.556 416.624 360.138 419.341C360.72 422.057 360.354 424.891 359.099 427.369C357.845 429.848 355.779 431.821 353.246 432.96V551.175H357.206L361.94 518.741C366.674 486.308 412.328 411.47 412.328 411.47C360.924 376.851 371.741 318.221 371.741 318.221ZM318.729 449.625H313.313L294.575 411.97C294.575 411.97 320.201 398.645 325.875 370.582C331.55 342.52 329.077 322.395 329.077 322.395H352.245L318.729 449.625Z" fill="#F5F5F7"/>
<defs>
<clipPath id="clip0_82_2425">
<rect width="697.562" height="810.5" fill="white" transform="translate(0 0.5)"/>
</clipPath>
<clipPath id="clip1_82_2425">
<rect width="103.638" height="103.638" fill="white" transform="translate(297.621 142.663)"/>
</clipPath>
</defs>
</svg>
