<svg width="22" height="22" viewBox="0 0 22 22" fill="none" xmlns="http://www.w3.org/2000/svg">
<path d="M16.3693 20.7753C12.2947 20.77 8.38854 19.149 5.50738 16.2679C2.62623 13.3867 1.00528 9.48058 1 5.40603C1 4.18846 1.48367 3.02077 2.34462 2.15983C3.20556 1.29888 4.37326 0.815208 5.59082 0.815208C5.84864 0.813244 6.10604 0.836644 6.35928 0.885068C6.6041 0.921296 6.84478 0.981465 7.07784 1.06471C7.24176 1.12222 7.38783 1.22153 7.5016 1.3528C7.61538 1.48408 7.69291 1.64278 7.72655 1.81321L9.09381 7.80123C9.13066 7.96377 9.12623 8.13295 9.0809 8.29333C9.03557 8.45371 8.95081 8.60019 8.83433 8.7194C8.70459 8.85912 8.69461 8.8691 7.46706 9.50782C8.45009 11.6644 10.1748 13.3962 12.3273 14.3881C12.976 13.1505 12.986 13.1406 13.1257 13.0108C13.245 12.8943 13.3914 12.8096 13.5518 12.7642C13.7122 12.7189 13.8814 12.7145 14.0439 12.7513L20.0319 14.1186C20.1969 14.1569 20.3494 14.2365 20.4751 14.35C20.6008 14.4635 20.6956 14.6071 20.7505 14.7673C20.8347 15.0042 20.8982 15.248 20.9401 15.4958C20.9803 15.7467 21.0003 16.0003 21 16.2543C20.9816 17.4667 20.4843 18.6225 19.6167 19.4695C18.7491 20.3166 17.5817 20.786 16.3693 20.7753ZM5.59082 2.81122C4.90344 2.81384 4.24497 3.08807 3.75891 3.57412C3.27286 4.06017 2.99864 4.71865 2.99601 5.40603C2.99865 8.95202 4.40846 12.352 6.91586 14.8594C9.42326 17.3668 12.8233 18.7766 16.3693 18.7793C17.0566 18.7766 17.7151 18.5024 18.2012 18.0164C18.6872 17.5303 18.9614 16.8718 18.9641 16.1845V15.8551L14.3333 14.7873L14.0439 15.3362C13.5948 16.2044 13.2655 16.8332 12.4271 16.4938C10.7733 15.9019 9.27215 14.949 8.03267 13.7043C6.79318 12.4596 5.84653 10.9545 5.26148 9.29824C4.90219 8.5198 5.58084 8.16052 6.43912 7.71141L6.98802 7.44195L5.92016 2.81122H5.59082Z" fill="#B1A27B" stroke="#1B2C41" stroke-width="0.5"/>
</svg>
