<svg width="46" height="47" viewBox="0 0 46 47" fill="none" xmlns="http://www.w3.org/2000/svg">
<path d="M30.3408 36.307C38.5113 36.307 39.5977 36.307 42.1348 33.7677C44.6742 31.2305 44.6742 27.1442 44.6742 18.9737C44.6742 10.8032 44.6742 6.71688 42.1348 4.17971C39.5977 1.64038 35.5113 1.64038 27.3408 1.64038H18.6742C10.5037 1.64038 6.41732 1.64038 3.88015 4.17971C1.34082 6.71688 1.34082 10.8032 1.34082 18.9737C1.34082 27.1442 1.34082 31.2305 3.88015 33.7677C5.29499 35.1847 7.19082 35.8109 10.0075 36.0861" stroke="#CDC0A0" stroke-width="2" stroke-linecap="round" stroke-linejoin="round"/>
<path d="M16.8057 25.835V24.1357C16.8057 22.4854 17.1914 21.1816 17.9629 20.2246C18.7441 19.2676 19.9111 18.7891 21.4639 18.7891C23.0361 18.7891 24.208 19.2627 24.9795 20.21C25.751 21.1475 26.1367 22.4463 26.1367 24.1064C26.1367 25.0439 25.9902 25.9082 25.6973 26.6992C25.4141 27.4805 25.0674 28.1543 24.6572 28.7207C24.2568 29.2773 23.8516 29.8193 23.4414 30.3467C23.041 30.8643 22.6943 31.4502 22.4014 32.1045C22.1182 32.7588 21.9766 33.4521 21.9766 34.1846C21.9766 34.5361 22.0254 34.917 22.123 35.3271H20.0137C19.916 34.917 19.8672 34.5166 19.8672 34.126C19.8672 33.2861 19.999 32.5146 20.2627 31.8115C20.5361 31.0986 20.8633 30.4785 21.2441 29.9512C21.6348 29.4238 22.0205 28.8916 22.4014 28.3545C22.792 27.8174 23.1191 27.1777 23.3828 26.4355C23.6562 25.6836 23.793 24.8633 23.793 23.9746C23.793 21.9141 22.9971 20.8838 21.4053 20.8838C19.8037 20.8838 19.0029 21.9141 19.0029 23.9746V25.835H16.8057ZM19.9258 40V37.085H22.1523V40H19.9258Z" fill="#CDC0A0"/>
</svg>
