<svg width="27" height="26" viewBox="0 0 27 26" fill="none" xmlns="http://www.w3.org/2000/svg">
<path d="M13.4999 0.0400391C6.34087 0.0400391 0.538574 5.84234 0.538574 13C0.538397 14.7022 0.873531 16.3877 1.52484 17.9603C2.17614 19.533 3.13086 20.9619 4.33447 22.1655C5.53808 23.3691 6.967 24.3238 8.53962 24.9751C10.1122 25.6264 11.7978 25.9616 13.4999 25.9614C20.6563 25.9614 26.4599 20.1591 26.4599 13C26.4599 5.84234 20.6563 0.0400391 13.4999 0.0400391ZM14.7095 4.71914C15.9731 4.71914 16.3444 5.45219 16.3444 6.29054C16.3444 7.33679 15.5074 8.30474 14.0777 8.30474C12.8816 8.30474 12.3119 7.70399 12.347 6.70904C12.347 5.87069 13.0477 4.71914 14.7095 4.71914ZM11.4722 20.7625C10.6082 20.7625 9.97777 20.2374 10.5812 17.9356L11.5708 13.8519C11.7422 13.1985 11.7706 12.9366 11.5708 12.9366C11.3129 12.9366 10.1911 13.3875 9.52957 13.833L9.09892 13.1269C11.1982 11.3733 13.612 10.3446 14.6447 10.3446C15.5087 10.3446 15.6518 11.3652 15.2212 12.9366L14.0872 17.2296C13.886 17.9883 13.9724 18.2502 14.1736 18.2502C14.4328 18.2502 15.2806 17.937 16.1149 17.2795L16.6036 17.9356C14.561 19.9768 12.3349 20.7625 11.4722 20.7625Z" fill="#CDBB8D"/>
</svg>
