<svg width="16" height="17" viewBox="0 0 16 17" fill="none" xmlns="http://www.w3.org/2000/svg">
<path d="M6.57343 7.88193H11.5585C11.7306 7.88193 11.8701 7.74242 11.8701 7.57036C11.8701 7.39816 11.7306 7.25879 11.5585 7.25879H6.57343C6.40138 7.25879 6.26186 7.39816 6.26186 7.57036C6.26186 7.74242 6.40138 7.88193 6.57343 7.88193Z" fill="black"/>
<path d="M9.06636 10.3749C9.14898 10.3749 9.22827 10.342 9.28668 10.2836C9.34524 10.2252 9.37807 10.1459 9.37793 10.0633V5.07817C9.37793 4.90597 9.23842 4.7666 9.06636 4.7666C8.8943 4.7666 8.75479 4.90597 8.75479 5.07817V10.0633C8.75479 10.1459 8.78762 10.2252 8.84604 10.2836C8.90445 10.342 8.98374 10.3749 9.06636 10.3749Z" fill="black"/>
<path d="M9.06572 14.5046C10.4372 14.5046 11.7779 14.0979 12.9181 13.336C14.0584 12.574 14.9472 11.4911 15.4722 10.2239C15.997 8.95691 16.1343 7.56265 15.8668 6.21766C15.5992 4.8725 14.9388 3.6369 13.969 2.66716C12.6675 1.37149 10.9053 0.645018 9.069 0.646977C7.23255 0.649063 5.47188 1.37943 4.17326 2.67802C2.87481 3.9766 2.14432 5.73724 2.14236 7.57376C2.14027 9.41006 2.86677 11.1723 4.16254 12.4738C4.80487 13.1197 5.56905 13.6318 6.41072 13.9804C7.25239 14.329 8.1548 14.5073 9.06572 14.5048V14.5046ZM9.06572 1.26239V1.26225C10.5251 1.26336 11.939 1.77023 13.0666 2.69686C14.194 3.62338 14.9654 4.91221 15.2491 6.34382C15.5329 7.77523 15.3116 9.2609 14.6228 10.5473C13.9341 11.834 12.8206 12.842 11.4721 13.3996C10.1234 13.9572 8.62315 14.0301 7.22689 13.6056C5.83067 13.1812 4.62473 12.2859 3.81451 11.072C3.00443 9.85816 2.64027 8.40101 2.78409 6.94863C2.92791 5.49636 3.57081 4.13895 4.60315 3.10725C5.18887 2.52096 5.88447 2.05599 6.65032 1.7394C7.41618 1.42269 8.23709 1.26037 9.06583 1.2619L9.06572 1.26239Z" fill="black"/>
<path d="M0.311569 16.6352C0.394329 16.6352 0.473614 16.6024 0.531893 16.5438L4.60331 12.4734C4.72293 12.3515 4.72195 12.1559 4.60108 12.0351C4.48035 11.9143 4.28478 11.9133 4.16278 12.0329L0.0913687 16.1033C0.00221014 16.1924 -0.0243564 16.3264 0.0237713 16.4428C0.0720382 16.5592 0.185677 16.6352 0.311693 16.6352L0.311569 16.6352Z" fill="black"/>
</svg>
