<svg width="234" height="79" viewBox="0 0 234 79" fill="none" xmlns="http://www.w3.org/2000/svg">
<path d="M111.961 29.0975C112.261 29.9705 112.549 30.6065 112.824 31.0055C113.099 31.3796 113.424 31.629 113.799 31.7537C114.199 31.8535 114.724 31.9283 115.374 31.9782V32.8387H106.411V31.9782C107.261 31.9283 107.886 31.841 108.286 31.7163C108.711 31.5916 108.949 31.3297 108.999 30.9307C109.049 30.5316 108.924 29.9206 108.624 29.0975L106.486 22.6628C106.361 22.7875 106.174 22.8748 105.924 22.9247C105.674 22.9496 105.411 22.9621 105.136 22.9621H100.224C99.6737 22.9621 99.2612 23.0244 98.9862 23.1492C98.7112 23.2739 98.4737 23.6106 98.2737 24.1593L96.5112 29.0975C96.1862 30.0453 96.1862 30.7561 96.5112 31.23C96.8612 31.6789 97.8362 31.9283 99.4362 31.9782V32.8387H91.6736V31.9782C92.4736 31.9283 93.0986 31.6789 93.5486 31.23C94.0236 30.7561 94.4361 30.0453 94.7861 29.0975L101.424 10.9157C101.674 10.2672 101.911 9.63122 102.136 9.0077C102.361 8.38418 102.561 7.74819 102.736 7.09973H104.574C104.749 7.74819 104.936 8.38418 105.136 9.0077C105.361 9.63122 105.599 10.2672 105.849 10.9157L111.961 29.0975ZM105.211 21.6153C105.536 21.6153 105.761 21.5779 105.886 21.5031C106.011 21.4033 106.011 21.2038 105.886 20.9045L102.811 11.8135H102.736L99.1362 21.7275C99.2612 21.6776 99.4112 21.6527 99.5862 21.6527C99.7612 21.6278 99.9612 21.6153 100.186 21.6153H105.211Z" fill="#B1A27B"/>
<path d="M130.628 33.3998C128.803 33.3998 127.103 33.1005 125.528 32.502C123.953 31.8784 122.565 31.0055 121.365 29.8832C120.19 28.7359 119.278 27.3766 118.628 25.8053C117.978 24.2341 117.653 22.5007 117.653 20.6052C117.653 18.56 118.028 16.7269 118.778 15.1057C119.528 13.4596 120.553 12.063 121.853 10.9157C123.153 9.7684 124.653 8.89547 126.353 8.29689C128.053 7.69831 129.853 7.39902 131.753 7.39902C132.678 7.39902 133.616 7.46137 134.566 7.58608C135.541 7.71078 136.441 7.88537 137.266 8.10984C138.116 8.30936 138.816 8.53383 139.366 8.78324V14.6942H138.503C138.403 13.2227 137.991 12.0754 137.266 11.2524C136.541 10.4044 135.641 9.80581 134.566 9.45664C133.516 9.08253 132.416 8.89547 131.266 8.89547C129.491 8.89547 127.841 9.29452 126.315 10.0926C124.79 10.8907 123.565 12.1128 122.64 13.7589C121.74 15.3801 121.29 17.4626 121.29 20.0066C121.29 22.4259 121.715 24.5334 122.565 26.3291C123.415 28.0999 124.54 29.4717 125.94 30.4443C127.365 31.417 128.941 31.9034 130.666 31.9034C132.241 31.9034 133.628 31.5417 134.828 30.8185C136.053 30.0702 137.053 29.135 137.828 28.0126C138.603 26.8903 139.116 25.7555 139.366 24.6082H140.228L140.003 28.9853C139.053 30.1575 137.828 31.1926 136.328 32.0904C134.828 32.9634 132.928 33.3998 130.628 33.3998Z" fill="#B1A27B"/>
<path d="M143.345 7.96019H163.558V13.7963H162.695C162.645 12.9234 162.507 12.1502 162.282 11.4768C162.057 10.8034 161.632 10.2797 161.007 9.90557C160.382 9.50652 159.432 9.30699 158.157 9.30699H155.045V29.0975C155.045 29.9455 155.132 30.569 155.307 30.9681C155.507 31.3672 155.857 31.629 156.357 31.7537C156.882 31.8784 157.632 31.9533 158.607 31.9782V32.8387H149.232V31.9782C149.907 31.9533 150.432 31.8784 150.807 31.7537C151.207 31.629 151.482 31.3672 151.632 30.9681C151.782 30.569 151.857 29.9455 151.857 29.0975V9.30699H148.707C147.457 9.30699 146.52 9.50652 145.895 9.90557C145.27 10.2797 144.845 10.8034 144.62 11.4768C144.395 12.1502 144.257 12.9234 144.207 13.7963H143.345V7.96019Z" fill="#B1A27B"/>
<path d="M167.574 32.8387V31.9782C168.249 31.9533 168.774 31.8784 169.149 31.7537C169.549 31.629 169.824 31.3672 169.974 30.9681C170.124 30.569 170.199 29.9455 170.199 29.0975V11.7013C170.199 10.8284 170.099 10.2049 169.899 9.83075C169.724 9.4317 169.386 9.16982 168.886 9.04512C168.386 8.92041 167.636 8.84559 166.636 8.82065V7.96019H170.199C171.899 7.96019 173.274 7.93525 174.324 7.88537C175.399 7.81054 176.261 7.77313 176.911 7.77313C179.511 7.77313 181.599 8.28442 183.174 9.30699C184.749 10.3046 185.536 11.7387 185.536 13.6093C185.536 14.5072 185.324 15.3926 184.899 16.2655C184.499 17.1384 183.849 17.924 182.949 18.6224C182.049 19.2958 180.874 19.8071 179.424 20.1563C177.974 20.4805 176.211 20.5428 174.136 20.3433V19.221C176.136 19.3956 177.699 19.2459 178.824 18.772C179.974 18.2732 180.786 17.5873 181.261 16.7144C181.736 15.8165 181.974 14.8563 181.974 13.8338C181.974 12.5618 181.686 11.5891 181.111 10.9157C180.561 10.2173 179.824 9.74346 178.899 9.49405C177.999 9.24464 177.024 9.11994 175.974 9.11994C175.124 9.11994 174.474 9.26958 174.024 9.56887C173.599 9.86816 173.386 10.579 173.386 11.7013V29.0975C173.386 29.9455 173.474 30.569 173.649 30.9681C173.849 31.3672 174.224 31.629 174.774 31.7537C175.349 31.8784 176.186 31.9533 177.286 31.9782V32.8387H167.574Z" fill="#B1A27B"/>
<path d="M189.327 32.8387V31.9782C190.002 31.9533 190.527 31.8784 190.902 31.7537C191.277 31.629 191.54 31.3672 191.69 30.9681C191.865 30.569 191.952 29.9455 191.952 29.0975V11.7013C191.952 10.8284 191.852 10.2049 191.652 9.83075C191.477 9.4317 191.139 9.16982 190.639 9.04512C190.139 8.92041 189.389 8.84559 188.389 8.82065V7.96019H206.24V13.1978H205.377C205.352 12.3997 205.227 11.7138 205.002 11.1401C204.777 10.5416 204.365 10.0926 203.765 9.79334C203.165 9.46911 202.277 9.30699 201.102 9.30699H196.79C196.265 9.30699 195.852 9.4317 195.552 9.68111C195.277 9.93051 195.14 10.6039 195.14 11.7013V18.7346C195.34 18.585 195.577 18.4852 195.852 18.4353C196.152 18.3855 196.502 18.3605 196.902 18.3605H202.19C203.665 18.3605 204.44 17.5375 204.515 15.8914H205.377V22.2513H204.515C204.49 21.2287 204.315 20.5553 203.99 20.2311C203.665 19.8819 203.065 19.7073 202.19 19.7073H196.977C196.302 19.7073 195.827 19.8196 195.552 20.044C195.277 20.2685 195.14 20.705 195.14 21.3534V29.0975C195.14 30.17 195.327 30.8434 195.702 31.1177C196.102 31.3672 196.865 31.4919 197.99 31.4919H203.202C204.427 31.4919 205.39 31.2923 206.09 30.8933C206.79 30.4693 207.302 29.9206 207.627 29.2472C207.952 28.5488 208.152 27.8006 208.227 27.0025H209.09L208.79 32.8387H189.327Z" fill="#B1A27B"/>
<path d="M212.2 33.0631C211.525 33.0631 210.85 32.9883 210.175 32.8387V31.9782C210.75 31.9782 211.25 31.9159 211.675 31.7911C212.1 31.6664 212.537 31.3921 212.987 30.9681C213.437 30.5441 213.962 29.8832 214.562 28.9853L220.937 19.2958C219.162 18.9466 217.7 18.3106 216.55 17.3878C215.425 16.4401 214.862 15.193 214.862 13.6467C214.862 12.5742 215.15 11.6015 215.725 10.7286C216.325 9.83075 217.237 9.11994 218.462 8.59618C219.687 8.04748 221.25 7.77313 223.15 7.77313C223.875 7.77313 224.675 7.81054 225.55 7.88537C226.45 7.93525 227.463 7.96019 228.588 7.96019H232.638V8.82065C231.963 8.84559 231.438 8.92041 231.063 9.04512C230.688 9.16982 230.413 9.4317 230.238 9.83075C230.088 10.2049 230.013 10.8284 230.013 11.7013V29.0975C230.013 29.9455 230.1 30.569 230.275 30.9681C230.45 31.3672 230.788 31.629 231.288 31.7537C231.813 31.8784 232.563 31.9533 233.538 31.9782V32.8387H224.2V31.9782C224.875 31.9533 225.4 31.8784 225.775 31.7537C226.175 31.629 226.45 31.3672 226.6 30.9681C226.75 30.569 226.825 29.9455 226.825 29.0975V11.7013C226.825 10.554 226.6 9.84322 226.15 9.56887C225.725 9.26958 225.063 9.11994 224.163 9.11994C223.212 9.11994 222.287 9.23217 221.387 9.45664C220.512 9.68111 219.8 10.1176 219.25 10.766C218.7 11.3896 218.425 12.3124 218.425 13.5345C218.425 15.3302 219.1 16.6645 220.45 17.5375C221.8 18.4104 223.675 18.7471 226.075 18.5476V19.6699C225.35 19.6699 224.813 19.7447 224.463 19.8944C224.137 20.0191 223.837 20.2934 223.562 20.7174L217.525 30.1076C216.95 31.0305 216.275 31.7537 215.5 32.2775C214.75 32.8013 213.65 33.0631 212.2 33.0631Z" fill="#B1A27B"/>
<path d="M92.6514 60.9231V60.6533C92.9017 60.6376 93.1128 60.5633 93.2849 60.4303C93.4648 60.2895 93.6408 60.0627 93.8129 59.7499L95.2912 57.0983C95.3537 56.981 95.3889 56.8793 95.3967 56.7933C95.4046 56.6994 95.3772 56.5899 95.3146 56.4648L94.1296 54.2943C93.9889 54.0284 93.8637 53.8328 93.7542 53.7077C93.6447 53.5825 93.5274 53.5004 93.4022 53.4613C93.2771 53.4222 93.1168 53.3987 92.9212 53.3909V53.1211H95.6549V53.3909C95.3264 53.4065 95.1191 53.4652 95.033 53.5669C94.9548 53.6686 95.0213 53.911 95.2325 54.2943L96.2063 56.0659H96.2297L97.227 54.2943C97.3991 53.9893 97.4538 53.7663 97.3913 53.6256C97.3365 53.4848 97.137 53.4065 96.7929 53.3909V53.1211H98.9282V53.3909C98.6935 53.4065 98.4941 53.4809 98.3298 53.6138C98.1734 53.7468 98.0013 53.9736 97.8136 54.2943L96.7225 56.1715C96.5895 56.3905 96.5817 56.6134 96.699 56.8402L98.3064 59.7499C98.4628 60.0236 98.5919 60.2231 98.6935 60.3482C98.7952 60.4655 98.9008 60.5437 99.0103 60.5829C99.1198 60.6141 99.2528 60.6376 99.4092 60.6533V60.9231H96.746V60.6533C96.9806 60.6376 97.1527 60.6102 97.2622 60.5711C97.3795 60.532 97.4343 60.4499 97.4264 60.3247C97.4186 60.1996 97.3404 60.008 97.1918 59.7499L95.8074 57.2274H95.7839L94.4112 59.7499C94.2391 60.0627 94.2079 60.2895 94.3174 60.4303C94.4269 60.5633 94.6928 60.6376 95.1152 60.6533V60.9231H92.6514ZM118.087 52.9451C118.619 52.9451 119.119 53.0389 119.589 53.2267C120.058 53.4144 120.476 53.6881 120.844 54.0479C121.212 54.3999 121.497 54.8262 121.7 55.3267C121.912 55.8273 122.017 56.3866 122.017 57.0045C122.017 57.6224 121.912 58.1816 121.7 58.6822C121.497 59.1828 121.212 59.613 120.844 59.9728C120.484 60.3326 120.066 60.6102 119.589 60.8058C119.111 61.0013 118.607 61.0991 118.075 61.0991C117.551 61.0991 117.05 61.0052 116.573 60.8175C116.104 60.6298 115.686 60.3599 115.318 60.008C114.958 59.6482 114.673 59.218 114.462 58.7174C114.258 58.2168 114.156 57.6576 114.156 57.0397C114.156 56.4218 114.258 55.8625 114.462 55.3619C114.673 54.8614 114.958 54.4312 115.318 54.0714C115.686 53.7116 116.104 53.4339 116.573 53.2384C117.05 53.0428 117.555 52.9451 118.087 52.9451ZM118.251 60.6298C118.72 60.6298 119.151 60.5007 119.542 60.2426C119.941 59.9845 120.261 59.6052 120.504 59.1046C120.746 58.5962 120.867 57.9704 120.867 57.2274C120.867 56.4139 120.727 55.7256 120.445 55.1625C120.163 54.5915 119.8 54.1574 119.354 53.8602C118.908 53.563 118.431 53.4144 117.923 53.4144C117.453 53.4144 117.019 53.5434 116.62 53.8015C116.221 54.0597 115.901 54.4429 115.658 54.9513C115.416 55.4519 115.295 56.0737 115.295 56.8168C115.295 57.6302 115.435 58.3224 115.717 58.8934C115.998 59.4565 116.366 59.8867 116.82 60.184C117.273 60.4812 117.75 60.6298 118.251 60.6298ZM138.552 59.7499C138.45 60.0471 138.45 60.27 138.552 60.4186C138.661 60.5594 138.966 60.6376 139.467 60.6533V60.9231H137.038V60.6533C137.289 60.6376 137.488 60.5594 137.637 60.4186C137.785 60.27 137.91 60.0471 138.012 59.7499L139.913 54.0479C139.983 53.8446 140.054 53.6451 140.124 53.4496C140.202 53.254 140.269 53.0546 140.323 52.8512H140.898C140.953 53.0546 141.016 53.254 141.086 53.4496C141.164 53.6373 141.235 53.8367 141.297 54.0479L143.034 59.7499C143.12 60.0236 143.206 60.2231 143.292 60.3482C143.378 60.4734 143.483 60.5516 143.609 60.5829C143.734 60.6141 143.898 60.6376 144.101 60.6533V60.9231H141.297V60.6533C141.563 60.6376 141.759 60.6102 141.884 60.5711C142.017 60.532 142.091 60.4499 142.107 60.3247C142.122 60.1996 142.083 60.008 141.989 59.7499L140.347 54.3295H140.323L138.552 59.7499ZM162.879 54.0479L164.615 59.7499C164.67 59.9141 164.728 60.0549 164.791 60.1722C164.854 60.2817 164.955 60.3756 165.096 60.4538C165.237 60.532 165.444 60.5985 165.718 60.6533L165.295 63.2109H165.026C165.08 62.6478 165.053 62.198 164.943 61.8617C164.842 61.5254 164.697 61.2829 164.509 61.1343C164.329 60.9935 164.15 60.9231 163.97 60.9231H160.297C160.047 60.9231 159.813 61.0365 159.594 61.2633C159.375 61.4902 159.199 61.7796 159.066 62.1315C158.933 62.4835 158.858 62.8433 158.843 63.2109H158.573V60.6533C158.893 60.575 159.148 60.3951 159.335 60.1136C159.531 59.8242 159.687 59.5074 159.805 59.1632L161.506 54.0479C161.576 53.8446 161.647 53.6451 161.717 53.4496C161.795 53.254 161.862 53.0546 161.917 52.8512H162.491C162.546 53.0546 162.609 53.254 162.679 53.4496C162.75 53.6451 162.816 53.8446 162.879 54.0479ZM162.855 60.5007C163.121 60.4929 163.313 60.4734 163.43 60.4421C163.555 60.4108 163.622 60.3443 163.629 60.2426C163.645 60.1331 163.618 59.9689 163.547 59.7499L161.94 54.3295H161.917L159.887 60.5007H162.855ZM180.686 60.9231V60.6533C180.897 60.6454 181.062 60.622 181.179 60.5829C181.304 60.5437 181.39 60.4616 181.437 60.3365C181.484 60.2113 181.508 60.0158 181.508 59.7499V54.2943C181.508 54.0205 181.476 53.825 181.414 53.7077C181.359 53.5825 181.253 53.5004 181.097 53.4613C180.94 53.4222 180.706 53.3987 180.393 53.3909V53.1211H183.326V53.3909C183.115 53.3987 182.951 53.4222 182.833 53.4613C182.716 53.5004 182.63 53.5825 182.575 53.7077C182.528 53.825 182.505 54.0205 182.505 54.2943V59.6795L186.963 53.1211H188.547V53.3909C188.336 53.3987 188.171 53.4222 188.054 53.4613C187.937 53.5004 187.851 53.5825 187.796 53.7077C187.749 53.825 187.726 54.0205 187.726 54.2943V59.7499C187.726 60.0158 187.753 60.2113 187.808 60.3365C187.863 60.4616 187.968 60.5437 188.125 60.5829C188.289 60.622 188.523 60.6454 188.829 60.6533V60.9231H185.907V60.6533C186.118 60.6454 186.283 60.622 186.4 60.5829C186.525 60.5437 186.611 60.4616 186.658 60.3365C186.705 60.2113 186.728 60.0158 186.728 59.7499V54.3764L182.27 60.9231H180.686ZM204.512 60.9231V60.6533C204.723 60.6454 204.888 60.622 205.005 60.5829C205.13 60.5437 205.216 60.4616 205.263 60.3365C205.31 60.2113 205.333 60.0158 205.333 59.7499V54.2943C205.333 54.0205 205.302 53.825 205.24 53.7077C205.185 53.5825 205.079 53.5004 204.923 53.4613C204.766 53.4222 204.532 53.3987 204.219 53.3909V53.1211H207.152V53.3909C206.941 53.3987 206.776 53.4222 206.659 53.4613C206.542 53.5004 206.456 53.5825 206.401 53.7077C206.354 53.825 206.331 54.0205 206.331 54.2943V56.3475C206.393 56.3005 206.468 56.2692 206.554 56.2536C206.647 56.238 206.757 56.2301 206.882 56.2301H209.979C210.191 56.2301 210.339 56.1949 210.425 56.1246C210.511 56.0542 210.554 55.9134 210.554 55.7022V54.2943C210.554 54.0205 210.523 53.825 210.46 53.7077C210.406 53.5825 210.3 53.5004 210.144 53.4613C209.987 53.4222 209.753 53.3987 209.44 53.3909V53.1211H212.373V53.3909C212.162 53.3987 211.997 53.4222 211.88 53.4613C211.763 53.5004 211.677 53.5825 211.622 53.7077C211.575 53.825 211.552 54.0205 211.552 54.2943V59.7499C211.552 60.0158 211.579 60.2113 211.634 60.3365C211.688 60.4616 211.794 60.5437 211.95 60.5829C212.115 60.622 212.349 60.6454 212.654 60.6533V60.9231H209.733V60.6533C209.944 60.6454 210.108 60.622 210.226 60.5829C210.351 60.5437 210.437 60.4616 210.484 60.3365C210.531 60.2113 210.554 60.0158 210.554 59.7499V56.5235C210.492 56.5782 210.414 56.6134 210.32 56.629C210.226 56.6447 210.12 56.6525 210.003 56.6525H206.906C206.694 56.6525 206.546 56.6877 206.46 56.7581C206.374 56.8285 206.331 56.9654 206.331 57.1687V59.7499C206.331 60.0158 206.358 60.2113 206.413 60.3365C206.475 60.4616 206.585 60.5437 206.741 60.5829C206.898 60.622 207.128 60.6454 207.434 60.6533V60.9231H204.512ZM233.383 53.1211V55.0686H233.113C233.09 54.7714 233.035 54.5094 232.949 54.2826C232.871 54.0557 232.73 53.8758 232.527 53.7429C232.331 53.6099 232.038 53.5434 231.647 53.5434H230.673C230.509 53.5434 230.379 53.5825 230.286 53.6607C230.2 53.739 230.157 53.9501 230.157 54.2943V59.7499C230.157 60.0158 230.184 60.2113 230.239 60.3365C230.301 60.4616 230.411 60.5437 230.567 60.5829C230.731 60.622 230.966 60.6454 231.271 60.6533V60.9231H228.338V60.6533C228.549 60.6454 228.713 60.622 228.831 60.5829C228.956 60.5437 229.042 60.4616 229.089 60.3365C229.136 60.2113 229.159 60.0158 229.159 59.7499V54.2943C229.159 54.0205 229.128 53.825 229.065 53.7077C229.011 53.5825 228.905 53.5004 228.749 53.4613C228.592 53.4222 228.358 53.3987 228.045 53.3909V53.1211H233.383Z" fill="#B1A27B"/>
<line x1="92.842" y1="43.681" x2="233.911" y2="43.681" stroke="#58564F" stroke-width="0.881682"/>
<g clip-path="url(#clip0_8_6)">
<path d="M65.9074 8.59942C53.7489 -0.15694 33.5984 0.409534 33.5984 0.409534C33.5984 0.409534 13.4478 -0.15694 1.28932 8.59942C1.28932 8.59942 -0.57289 37.6938 1.28932 54.1765C2.34203 63.4852 15.3136 75.9351 33.5984 79.0765C51.8832 75.9351 64.8565 63.4852 65.9074 54.1765C67.7696 37.6938 65.9074 8.59942 65.9074 8.59942Z" stroke="#B1A27B" stroke-width="0.977699" stroke-miterlimit="10"/>
<g clip-path="url(#clip1_8_6)">
<path fill-rule="evenodd" clip-rule="evenodd" d="M48.3314 18.6617C47.5167 18.725 46.7038 18.7872 45.8925 18.8482C46.5083 19.263 47.1251 19.6779 47.743 20.093C48.5559 20.0304 49.3685 19.9682 50.1807 19.9064C49.5649 19.4906 48.9459 19.0768 48.3314 18.6617ZM48.4644 18.4649C48.2132 17.6859 47.963 16.9095 47.7138 16.1357C48.3314 16.5493 48.9494 16.9653 49.5649 17.378C49.8143 18.1528 50.0644 18.9296 50.3153 19.7082C49.6965 19.2918 49.0795 18.8773 48.4644 18.4645V18.4649ZM50.6128 20.6089C49.7971 20.5538 48.9866 20.4993 48.1721 20.444C48.7253 20.9426 49.2766 21.4411 49.8261 21.9396C50.6408 21.9953 51.454 22.0505 52.2658 22.1051C51.7163 21.6082 51.1641 21.1065 50.6128 20.6089ZM50.7731 20.432C50.6379 19.6269 50.5011 18.8228 50.3628 18.0196C50.9169 18.5178 51.469 19.0161 52.0192 19.5145C52.1548 20.3192 52.2915 21.1234 52.4293 21.9272C51.8762 21.4283 51.3259 20.9291 50.7731 20.432ZM52.6318 22.8261C51.8356 22.6558 51.0387 22.4847 50.241 22.3127C50.7172 22.8845 51.1917 23.4574 51.6645 24.0314C52.462 24.2002 53.2597 24.3709 54.0577 24.5435C53.5826 23.9702 53.1074 23.3977 52.6318 22.8261ZM52.8181 22.6726C52.7999 21.8577 52.7799 21.0429 52.758 20.228C53.2308 20.7991 53.7077 21.3722 54.1803 21.9448C54.2 22.7604 54.2201 23.5758 54.2404 24.3913C53.7661 23.8192 53.2916 23.2464 52.8169 22.6728L52.8181 22.6726ZM54.3605 25.2775C53.5951 24.9947 52.8309 24.7117 52.0681 24.4285C52.4542 25.0623 52.8405 25.6962 53.2272 26.3305C53.9944 26.6171 54.7589 26.9017 55.5206 27.1843C55.1346 26.5495 54.748 25.9139 54.3605 25.2775ZM54.5651 25.1539C54.6632 24.345 54.7614 23.5336 54.8581 22.7263C55.2446 23.3591 55.6302 23.9965 56.0182 24.6299C55.922 25.44 55.8225 26.248 55.7257 27.0597C55.3365 26.4227 54.9523 25.7889 54.5651 25.1535V25.1539ZM55.7403 27.9279C55.0072 27.5704 54.2743 27.2137 53.5416 26.8577C53.864 27.5272 54.1893 28.1966 54.512 28.8651C55.2445 29.2246 55.9776 29.5818 56.7113 29.9367C56.3881 29.2678 56.0645 28.5983 55.7403 27.9279ZM55.9545 27.8245C56.133 27.026 56.309 26.2315 56.4849 25.4334C56.8092 26.1059 57.134 26.7739 57.4557 27.4456C57.2788 28.2405 57.1015 29.0386 56.9266 29.8337C56.6049 29.1618 56.2806 28.4942 55.9545 27.8245ZM56.7826 30.744C56.1095 30.2813 55.4374 29.8194 54.7662 29.3582C54.9883 30.0662 55.2092 30.7771 55.4288 31.4908C56.1011 31.9504 56.774 32.4112 57.4475 32.8734C57.2243 32.1633 57.0027 31.4536 56.7826 30.7442V30.744ZM57.0124 30.6723C57.3027 29.9109 57.5943 29.1494 57.8872 28.388C58.1103 29.0963 58.3279 29.8075 58.5492 30.5158C58.2585 31.2794 57.9671 32.0408 57.6752 32.8001C57.4529 32.0912 57.2319 31.3815 57.0124 30.6711V30.6723ZM57.4503 33.6563C56.8281 33.1284 56.2055 32.6015 55.5825 32.0755C55.7311 32.8051 55.8804 33.5315 56.0286 34.2625C56.6526 34.7887 57.2732 35.3148 57.8968 35.842C57.7467 35.1137 57.5985 34.3829 57.4503 33.6563ZM57.6848 33.609C58.0518 32.8787 58.4186 32.1498 58.7852 31.4223C58.933 32.1507 59.0822 32.8797 59.2327 33.609C58.8639 34.337 58.4995 35.0656 58.1323 35.7931C57.9843 35.0648 57.8335 34.3362 57.6848 33.609ZM57.7363 36.6456C57.2015 36.0311 56.6659 35.4158 56.1296 34.7999C56.1678 35.5425 56.2033 36.2867 56.2399 37.0295C56.7764 37.6426 57.3122 38.2602 57.8481 38.873C57.813 38.1296 57.7736 37.388 57.7363 36.6466V36.6456ZM57.9767 36.6321C58.449 35.9674 58.9213 35.303 59.3933 34.6388C59.431 35.3814 59.4667 36.1216 59.5053 36.8662C59.03 37.532 58.5604 38.1955 58.0885 38.8611C58.0498 38.1197 58.0144 37.3755 57.9767 36.6321ZM57.6508 39.6338C57.1812 38.9672 56.711 38.3008 56.2401 37.6346C56.2017 38.376 56.1634 39.1218 56.1254 39.8652C56.5947 40.5283 57.0642 41.1949 57.5362 41.8592C57.5731 41.1178 57.6127 40.3764 57.6508 39.6338ZM57.8912 39.6454C58.428 39.0321 58.9671 38.4177 59.5017 37.8035C59.4651 38.5481 59.4271 39.2913 59.3877 40.0329C58.8509 40.6466 58.3134 41.2599 57.7752 41.8726C57.8152 41.1296 57.8527 40.3898 57.8912 39.6454ZM57.1782 42.5956C56.8129 41.8673 56.4476 41.1396 56.0825 40.4127C55.9326 41.1388 55.7824 41.8665 55.6318 42.5956C55.9969 43.3236 56.3627 44.0528 56.7291 44.7831C56.8784 44.0553 57.0296 43.3245 57.1782 42.5956ZM57.413 42.6449C58.0356 42.1204 58.6592 41.5954 59.284 41.0697C59.1319 41.7981 58.9845 42.5258 58.8335 43.2554C58.2093 43.7811 57.586 44.3067 56.9637 44.8324C57.1139 44.103 57.2637 43.3738 57.413 42.6449ZM56.3347 45.4798C56.0819 44.7027 55.829 43.9271 55.5759 43.1528C55.3187 43.8509 55.0629 44.5485 54.8085 45.2456C55.0585 46.022 55.3129 46.7971 55.5645 47.5714C55.8211 46.875 56.0759 46.1763 56.3347 45.4798ZM56.5586 45.5626C57.2548 45.1351 57.9501 44.7086 58.6446 44.2832C58.3857 44.9787 58.1305 45.6756 57.8733 46.3769C57.1789 46.803 56.4845 47.2295 55.79 47.6563C56.0458 46.9584 56.3032 46.2585 56.5582 45.5626H56.5586ZM55.1214 48.2112C54.9453 47.4127 54.7716 46.6164 54.5947 45.8209C54.2706 46.4871 53.9461 47.1606 53.6228 47.8304C53.7989 48.6253 53.9761 49.4208 54.1492 50.2183C54.4744 49.5488 54.7984 48.8798 55.1214 48.2112ZM55.3375 48.3134C56.0711 47.9575 56.8038 47.5988 57.536 47.2437C57.2129 47.9122 56.8906 48.5835 56.5673 49.2521C55.8328 49.6085 55.0993 49.9658 54.367 50.3239C54.6909 49.6513 55.0144 48.9838 55.3375 48.3134ZM53.5703 50.7748C53.5098 49.9635 53.4505 49.1504 53.3924 48.3354C52.9758 48.9514 52.5611 49.5661 52.142 50.1821C52.2009 50.9958 52.2582 51.8089 52.3197 52.6225C52.7361 52.007 53.153 51.3912 53.5703 50.7748ZM53.7688 50.911C54.5455 50.6645 55.3225 50.4173 56.0999 50.1697C55.6829 50.7846 55.2648 51.4022 54.8487 52.0171C54.0698 52.2627 53.2925 52.5098 52.5168 52.7585C52.9337 52.1388 53.3517 51.5262 53.7688 50.9102V50.911ZM51.7151 53.1174C51.733 52.3012 51.7524 51.4855 51.7732 50.6704C51.2969 51.2437 50.8228 51.8168 50.351 52.3896C50.3307 53.2045 50.3112 54.0201 50.2925 54.8364C50.7655 54.2611 51.2396 53.6881 51.7147 53.1174H51.7151ZM51.898 53.2693C52.6951 53.0994 53.4924 52.9252 54.2884 52.7559C53.8156 53.327 53.3415 53.8999 52.8662 54.4748C52.0712 54.6443 51.2741 54.8153 50.475 54.9879C50.95 54.4157 51.4241 53.8428 51.8972 53.2693H51.898ZM49.5589 55.2031C49.6925 54.3988 49.8275 53.5947 49.9642 52.7908C49.413 53.2899 48.8617 53.7886 48.3103 54.287C48.1759 55.0928 48.0408 55.8976 47.9051 56.7016C48.4545 56.2028 49.0058 55.7033 49.5589 55.2031ZM49.7208 55.3809C50.5307 55.3252 51.3456 55.2699 52.1595 55.2128C51.609 55.7125 51.0555 56.212 50.506 56.7112C49.6914 56.7685 48.8779 56.8245 48.0655 56.8793C48.6168 56.3792 49.1686 55.8797 49.7208 55.3809ZM47.1589 57.0027C47.4084 56.2261 47.658 55.4499 47.9077 54.6741C47.2899 55.0883 46.6729 55.5032 46.0566 55.9189C45.805 56.695 45.5582 57.471 45.3068 58.2481C45.9245 57.8321 46.5407 57.4191 47.1589 57.0027ZM47.2911 57.2017C48.1048 57.2618 48.9159 57.3251 49.73 57.3865C49.1138 57.8026 48.4954 58.2156 47.879 58.633C47.067 58.5713 46.2543 58.5092 45.4412 58.4467C46.0584 58.0313 46.6759 57.6187 47.2911 57.2017ZM44.5618 58.4801C44.8851 57.7295 45.2087 56.9814 45.5325 56.2359C44.8781 56.5879 44.2238 56.9408 43.5694 57.2947C43.245 58.0428 42.9218 58.7908 42.5997 59.5389L44.5614 58.4801H44.5618ZM44.6766 58.6919C45.4778 58.8322 46.2831 58.9714 47.0862 59.1093C46.4307 59.465 45.7764 59.819 45.1231 60.1713C44.3182 60.0306 43.5146 59.8909 42.7124 59.7521C43.3655 59.3974 44.0198 59.044 44.6756 58.6917L44.6766 58.6919ZM41.7808 59.6064C42.2106 58.9143 42.6399 58.2218 43.0686 57.5289C42.3725 57.7828 41.6714 58.0355 40.9743 58.289C40.5414 58.9813 40.1141 59.6732 39.6838 60.3677C40.3817 60.1125 41.0807 59.8587 41.7808 59.6062V59.6064ZM41.8633 59.8323C42.6357 60.0893 43.4095 60.3452 44.1848 60.5999C43.4857 60.8567 42.7864 61.1105 42.087 61.3614C41.3146 61.1051 40.5392 60.8472 39.7633 60.5937C40.4629 60.34 41.163 60.0843 41.8627 59.8323H41.8633ZM45.8202 17.8557L44.1824 15.9259L46.6445 16.5138L48.2819 18.4442L45.8206 17.8557H45.8202ZM38.2385 13.8402C40.2128 14.1778 42.1365 14.7635 43.964 15.5834L43.7283 15.9337C41.9742 15.1531 40.1308 14.5916 38.2395 14.2618V13.841L38.2385 13.8402ZM38.2385 15.5919C40.8882 16.0823 43.4259 17.0534 45.7262 18.4573L45.4953 18.8015C43.2644 17.4421 40.8058 16.498 38.2385 16.0151V15.5919ZM38.2385 12.2822C41.5411 12.8115 44.7062 13.9902 47.5507 15.7502L47.319 16.0932C44.5431 14.3794 41.458 13.2272 38.2385 12.7018V12.2822V12.2822Z" fill="#B1A27B"/>
<path fill-rule="evenodd" clip-rule="evenodd" d="M19.3558 18.6617C20.1676 18.725 20.9812 18.7872 21.7965 18.8482C21.1764 19.263 20.5586 19.6779 19.9429 20.093C19.1299 20.0304 18.3172 19.9682 17.5047 19.9064C18.1207 19.4907 18.7378 19.0758 19.3558 18.6617ZM19.221 18.4649C19.4723 17.6859 19.7221 16.9095 19.9704 16.1357C19.3536 16.5493 18.736 16.9653 18.1198 17.378C17.8701 18.1533 17.6181 18.9312 17.3711 19.7082C17.9874 19.2918 18.604 18.8773 19.221 18.4645V18.4649ZM17.0722 20.6089C17.8868 20.5539 18.6995 20.4989 19.5103 20.444C18.9595 20.9426 18.4088 21.4414 17.8582 21.9404C17.0436 21.9961 16.2303 22.0513 15.4184 22.1059C15.9696 21.609 16.5191 21.1073 17.072 20.6097L17.0722 20.6089ZM16.9109 20.432C17.0486 19.6269 17.1847 18.8228 17.3192 18.0196C16.769 18.5178 16.2181 19.0161 15.6665 19.5145C15.5282 20.3192 15.3918 21.1234 15.2573 21.9272C15.8083 21.4283 16.3595 20.9299 16.9109 20.432ZM15.0512 22.8261C15.8476 22.6558 16.6471 22.4833 17.4434 22.3127C16.9693 22.8845 16.4946 23.4574 16.0193 24.0314C15.2236 24.2003 14.4248 24.372 13.6277 24.5435C14.1035 23.9703 14.578 23.3978 15.0512 22.8261ZM14.8687 22.6726C14.8867 21.8577 14.9058 21.0429 14.926 20.228C14.4536 20.7991 13.9795 21.3714 13.5037 21.9448C13.4837 22.7604 13.4636 23.5758 13.4436 24.3913C13.9198 23.8192 14.3927 23.2455 14.8683 22.6728L14.8687 22.6726ZM13.3248 25.2775C14.087 24.9954 14.8505 24.7127 15.6155 24.4293C15.2297 25.0631 14.8431 25.697 14.4558 26.3313C13.6917 26.6179 12.9279 26.9025 12.1644 27.1851C12.5497 26.5503 12.9359 25.9147 13.3232 25.2783L13.3248 25.2775ZM13.1201 25.1539C13.0225 24.345 12.9226 23.5336 12.8272 22.7263C12.4414 23.3591 12.0528 23.9965 11.6654 24.6299C11.7633 25.44 11.8611 26.248 11.9605 27.0597C12.3471 26.4227 12.7337 25.7874 13.1203 25.1535L13.1201 25.1539ZM11.9426 27.9287C12.6746 27.5712 13.4078 27.2145 14.1421 26.8585C13.8164 27.528 13.4963 28.1974 13.171 28.8659C12.4406 29.2254 11.7061 29.5808 10.9731 29.9375C11.2948 29.2686 11.6199 28.5994 11.9426 27.9287ZM11.7281 27.8253C11.5524 27.0268 11.3745 26.2323 11.2005 25.4342C10.8751 26.1067 10.5522 26.7747 10.2263 27.4464C10.4038 28.2413 10.5825 29.0394 10.7555 29.8345C11.0801 29.1626 11.402 28.495 11.7281 27.8253ZM10.8998 30.7448C11.5747 30.2821 12.2473 29.8202 12.9176 29.359C12.6972 30.0674 12.4747 30.7791 12.2541 31.4916C11.5823 31.9512 10.9105 32.412 10.2387 32.8742C10.4592 32.1641 10.6796 31.4544 10.8998 30.745V30.7448ZM10.671 30.6731C10.3815 29.9117 10.0877 29.1502 9.79662 28.3888C9.57447 29.0973 9.35251 29.8085 9.13397 30.5166C9.4263 31.2802 9.71736 32.0416 10.0072 32.8009C10.23 32.0929 10.4513 31.3836 10.671 30.6731ZM10.2333 33.6571C10.8567 33.1292 11.4791 32.6023 12.1005 32.0763C11.9522 32.8059 11.8038 33.5323 11.6554 34.2633C11.0318 34.7895 10.4094 35.316 9.78801 35.8428C9.93704 35.1145 10.0835 34.3837 10.2333 33.6571ZM9.99834 33.6098C9.63002 32.8795 9.26397 32.1506 8.9002 31.4231C8.75256 32.1515 8.59972 32.8815 8.45288 33.6098C8.81933 34.3379 9.18578 35.0659 9.55223 35.7939C9.70033 35.0655 9.84904 34.3375 9.99834 33.6098ZM9.94686 36.6464C10.4829 36.0314 11.0206 35.416 11.5536 34.8007C11.5173 35.5433 11.4804 36.2865 11.443 37.0303C10.9076 37.6434 10.3733 38.261 9.83588 38.8738C9.87287 38.1304 9.90987 37.3882 9.94686 36.6474V36.6464ZM9.70648 36.6329C9.23306 35.9682 8.76037 35.3038 8.28842 34.6396C8.25337 35.3822 8.2143 36.1224 8.17725 36.867C8.6518 37.5328 9.12155 38.1963 9.5947 38.8619C9.63169 38.1205 9.66895 37.3775 9.70648 36.6329ZM10.0338 39.6338C10.5041 38.9672 10.9747 38.3008 11.4454 37.6346C11.4837 38.376 11.5222 39.1218 11.5618 39.8652C11.0915 40.5283 10.6203 41.1949 10.1478 41.8592C10.11 41.1178 10.072 40.376 10.0338 39.6338ZM9.79341 39.6454C9.25603 39.0323 8.71904 38.4184 8.18245 37.8037C8.21958 38.5483 8.25817 39.2915 8.29824 40.0331C8.83629 40.6468 9.37381 41.2601 9.9108 41.8728C9.87074 41.1298 9.83288 40.39 9.79422 39.6456L9.79341 39.6454ZM10.5073 42.5956C10.8717 41.8673 11.2367 41.1396 11.6025 40.4127C11.7518 41.1388 11.9021 41.8665 12.0534 42.5956C11.6867 43.3237 11.3222 44.0531 10.9599 44.7835C10.8076 44.0557 10.6566 43.3249 10.5073 42.596V42.5956ZM10.2716 42.6449C9.64885 42.1203 9.02559 41.5953 8.4018 41.0699C8.55231 41.7982 8.70255 42.5268 8.85252 43.2556C9.47417 43.7813 10.0974 44.3069 10.7221 44.8326C10.5727 44.1032 10.4225 43.374 10.2716 42.6451V42.6449ZM11.3507 45.4796C11.6027 44.7025 11.855 43.9269 12.1077 43.1526C12.3661 43.8507 12.6231 44.5483 12.8787 45.2454C12.6259 46.0219 12.3733 46.7972 12.1209 47.5712C11.8617 46.8749 11.605 46.1777 11.3507 45.4796ZM11.1253 45.5624C10.4317 45.1349 9.73726 44.7084 9.04202 44.283C9.29776 44.9785 9.5543 45.6764 9.81164 46.3767C10.5061 46.8028 11.201 47.2293 11.8964 47.6561C11.6375 46.9582 11.3821 46.2583 11.1253 45.5624ZM12.5622 48.211C12.7386 47.4125 12.9147 46.6157 13.0905 45.8207C13.4154 46.4869 13.7383 47.1604 14.0626 47.8302C13.8867 48.6252 13.7102 49.4212 13.5332 50.2181C13.2105 49.5486 12.8869 48.8796 12.5622 48.211ZM12.3477 48.3131C11.6117 47.9573 10.8827 47.5986 10.1462 47.2435C10.4707 47.912 10.794 48.5833 11.1179 49.2519C11.8519 49.6084 12.5865 49.9657 13.3158 50.3237C12.9953 49.6511 12.6698 48.9836 12.3477 48.3131ZM14.1155 50.7748C14.1744 49.9635 14.2333 49.1504 14.2924 48.3354C14.7086 48.9514 15.1256 49.5669 15.5432 50.1821C15.4861 50.9958 15.4246 51.8089 15.3677 52.6225C14.9499 52.007 14.5325 51.3912 14.1155 50.7748ZM13.9194 50.911C13.1403 50.6645 12.3626 50.4173 11.5865 50.1697C12.0027 50.7846 12.42 51.4022 12.8365 52.0171C13.6153 52.2627 14.3923 52.5098 15.1674 52.7585C14.7519 52.1388 14.336 51.5262 13.9194 50.9102V50.911ZM15.972 53.1174C15.9521 52.3012 15.933 51.4855 15.9147 50.6704C16.3887 51.2437 16.8628 51.8168 17.337 52.3896C17.3546 53.2048 17.3757 54.0205 17.3953 54.8364C16.9213 54.2611 16.4469 53.6881 15.972 53.1174ZM15.7875 53.2693C14.9915 53.0994 14.1944 52.9252 13.3973 52.7559C13.8701 53.327 14.3437 53.8999 14.8182 54.4748C15.6143 54.6443 16.4114 54.8153 17.2096 54.9879C16.734 54.4157 16.26 53.8428 15.7873 53.2693H15.7875ZM18.1261 55.2031C17.9914 54.3988 17.8564 53.5947 17.7208 52.7908C18.2724 53.2899 18.8234 53.7886 19.3738 54.287C19.5101 55.0927 19.6437 55.8968 19.7827 56.7016C19.231 56.2033 18.6788 55.7038 18.1261 55.2031ZM17.9658 55.3809C17.1533 55.3252 16.3405 55.2691 15.5273 55.2128C16.077 55.7125 16.6278 56.212 17.1798 56.7112C17.9933 56.7685 18.8071 56.8245 19.6212 56.8793C19.0697 56.3792 18.5179 55.8797 17.9658 55.3809ZM20.5267 57.0027C20.2775 56.2261 20.0283 55.4499 19.7791 54.6741C20.3949 55.0883 21.0146 55.5031 21.629 55.9189C21.8798 56.6949 22.1292 57.4713 22.3772 58.2481C21.7614 57.8321 21.1437 57.4191 20.5267 57.0027ZM20.3927 57.2017C19.5818 57.2618 18.7675 57.3251 17.956 57.3865C18.5724 57.8026 19.1897 58.2156 19.8059 58.633C20.6176 58.5713 21.4311 58.5092 22.2464 58.4467C21.6254 58.0313 21.0104 57.6187 20.3927 57.2017ZM23.1256 58.4801C22.7987 57.7295 22.4778 56.9825 22.1523 56.2359C22.8066 56.5879 23.461 56.9408 24.1154 57.2947C24.4392 58.0428 24.7635 58.7908 25.0881 59.5389C24.4327 59.1872 23.7783 58.8343 23.125 58.4801H23.1256ZM23.0096 58.6919C22.2069 58.8331 21.4041 58.9722 20.6014 59.1093C21.255 59.465 21.9109 59.8178 22.5627 60.1713C23.3665 60.0306 24.1699 59.8909 24.9727 59.7521C24.3179 59.3974 23.6661 59.044 23.0096 58.6917V58.6919ZM25.9058 59.6064C25.4753 58.9143 25.0453 58.2218 24.616 57.5289C25.3133 57.7819 26.0125 58.0351 26.7133 58.2886C27.1415 58.9809 27.5714 59.6738 28.0032 60.3673C27.3043 60.1121 26.6052 59.8583 25.9058 59.6058V59.6064ZM25.8241 59.8323C25.0495 60.0893 24.2756 60.3452 23.5022 60.5999C24.2015 60.8566 24.8984 61.1093 25.5991 61.3614C26.3734 61.1051 27.1476 60.8472 27.9216 60.5937C27.2205 60.34 26.5194 60.0843 25.8241 59.8323ZM21.8654 17.8557L23.5024 15.9259L21.0411 16.5138L19.4031 18.4442L21.8654 17.8557ZM29.4452 13.8402C27.4713 14.1782 25.5478 14.7639 23.7203 15.5834L23.9555 15.9337C25.71 15.1535 27.5538 14.592 29.4452 14.2618V13.841V13.8402ZM29.4452 15.5919C26.7958 16.0828 24.2584 17.0538 21.9579 18.4573L22.1911 18.8015C24.4212 17.4423 26.8789 16.4982 29.4452 16.0151V15.5919ZM29.4452 12.2822C26.1435 12.8116 22.9793 13.9903 20.1357 15.7502L20.367 16.0932C23.1422 14.3796 26.2265 13.2273 29.4452 12.7018V12.2822V12.2822Z" fill="#B1A27B"/>
<path d="M33.842 17.5492C39.3179 17.5492 44.2764 19.7696 47.8643 23.3601C51.4522 26.9507 53.6736 31.9097 53.6736 37.3866C53.6736 42.8635 51.4538 47.8211 47.8643 51.413C44.2748 55.005 39.3179 57.224 33.842 57.224C28.3661 57.224 23.4095 55.0036 19.821 51.413C16.2324 47.8225 14.0117 42.8619 14.0117 37.3866C14.0117 31.9113 16.2326 26.9497 19.821 23.3601C23.4093 19.7706 28.3675 17.5492 33.842 17.5492ZM47.3645 23.8611C43.9036 20.3976 39.122 18.2555 33.843 18.2555C28.5641 18.2555 23.7804 20.3974 20.3195 23.8615C16.86 27.3212 14.717 32.1042 14.717 37.387C14.717 42.6665 16.8604 47.4506 20.3195 50.9137C23.7786 54.3768 28.5614 56.5167 33.842 56.5167C39.1226 56.5167 43.9036 54.3758 47.3645 50.9137C50.8254 47.4516 52.9676 42.6665 52.9676 37.387C52.9676 32.1036 50.8268 27.3206 47.3645 23.8615V23.8611Z" fill="#B1A27B"/>
<path d="M40.8242 61.5676C36.2616 62.8784 31.4223 62.8784 26.8596 61.5676L28.1046 61.1545C28.2095 61.1206 28.3028 61.0578 28.3736 60.9734C28.4445 60.8889 28.4901 60.7862 28.5052 60.6769C28.5628 60.5833 28.5933 60.4755 28.5933 60.3656C28.5933 60.2556 28.5628 60.1478 28.5052 60.0542L27.6767 58.7177C31.7063 59.8801 35.9822 59.8801 40.0117 58.7177L39.1816 60.0542C39.1061 60.255 39.1048 60.4762 39.178 60.678C39.2511 60.8797 39.3938 61.0487 39.5804 61.1545L40.8242 61.5676Z" fill="#B1A27B"/>
</g>
<path d="M44.6323 29.1963C42.7745 29.1617 40.8643 30.3287 38.9552 31.2735C36.9255 32.2786 33.8062 32.3401 33.8051 32.3401C33.8039 32.3401 30.6846 32.2764 28.6549 31.2735C26.7458 30.3287 24.8356 29.1617 22.9778 29.1963C21.1201 29.2309 19.4901 30.4694 19.5481 32.5121C19.6062 34.5547 20.9247 35.3465 22.634 35.3576C24.3432 35.3688 25.1571 34.2107 25.0533 33.0626C24.9495 31.9146 23.9558 31.6287 23.2759 31.7091C22.596 31.7895 22.0367 32.2373 22.4844 33.4535C22.4844 33.4535 21.1446 33.4301 21.4059 31.9269C21.6671 30.4237 24.0329 31.1127 24.9506 31.4679C25.9308 31.8487 26.3383 32.4205 28.9765 33.1665C30.3631 33.5585 33.8051 33.5272 33.8051 33.5272C33.8051 33.5272 37.247 33.5585 38.6337 33.1665C41.2718 32.4205 41.6793 31.8487 42.6595 31.4679C43.5773 31.1127 45.9396 30.4237 46.2042 31.9269C46.4688 33.4301 45.1258 33.4535 45.1258 33.4535C45.5723 32.2373 45.0141 31.7895 44.3342 31.7091C43.6543 31.6287 42.6595 31.9157 42.5568 33.0626C42.4541 34.2096 43.2702 35.3688 44.9762 35.3576C46.6821 35.3465 48.0051 34.5547 48.062 32.5121C48.1189 30.4694 46.4912 29.2265 44.6323 29.1963Z" fill="#B1A27B"/>
<g clip-path="url(#clip2_8_6)">
<path fill-rule="evenodd" clip-rule="evenodd" d="M30.5273 26.5558V30.1445H31.8731V26.5558H30.5273ZM31.4245 29.6959H30.9665V28.7893H31.4245V29.6959ZM31.4339 28.3502H30.967V27.4435H31.4339V28.3502Z" fill="#B1A27B"/>
<path fill-rule="evenodd" clip-rule="evenodd" d="M34.5647 25.2104V24.3132H34.1161V22.9674H33.6676V24.3132H33.219V25.2104H32.3218V30.1449H35.4619V25.2104H34.5647ZM33.219 29.6963H32.7704V28.7991H33.219V29.6963ZM33.219 28.3693H32.7704V27.4533H33.219V28.3693ZM33.219 27.0236H32.7704V26.1075H33.219V27.0236ZM34.1161 29.6963H33.6676V28.7991H34.1161V29.6963ZM34.1161 28.3693H33.6676V27.4533H34.1161V28.3693ZM34.1161 27.0236H33.6676V26.1075H34.1161V27.0236ZM35.0133 29.6963H34.5647V28.7991H35.0133V29.6963ZM35.0133 28.3693H34.5647V27.4533H35.0133V28.3693ZM35.0133 27.0236H34.5647V26.1075H35.0133V27.0236Z" fill="#B1A27B"/>
<path fill-rule="evenodd" clip-rule="evenodd" d="M35.9104 26.1075V30.1449H37.7048V27.9019L35.9104 26.1075ZM36.8215 29.7241H36.359V29.2333H36.8215V29.7241ZM36.8215 28.8269H36.359V28.3361H36.8215V28.8269ZM36.8215 27.9297H36.359V27.439H36.8215V27.9297Z" fill="#B1A27B"/>
</g>
<path d="M42.1472 43.026H47.4202C47.4202 43.026 47.3174 44.9368 44.8736 44.9368C42.4297 44.9368 42.1472 43.026 42.1472 43.026Z" fill="#B1A27B"/>
<path d="M47.42 42.1831H42.1638V42.6131H47.42V42.1831Z" fill="#B1A27B"/>
<path d="M42.6372 41.7529L44.7841 37.0546L46.9556 41.7529H47.3687L44.7919 35.9646L42.1638 41.7529H42.6372Z" fill="#B1A27B"/>
<path d="M20.2627 43.026H25.5356C25.5356 43.026 25.4329 44.9368 22.989 44.9368C20.5452 44.9368 20.2627 43.026 20.2627 43.026Z" fill="#B1A27B"/>
<path d="M25.5355 42.1831H20.2793V42.6131H25.5355V42.1831Z" fill="#B1A27B"/>
<path d="M20.7527 41.7529L22.8985 37.0546L25.0711 41.7529H25.4841L22.9074 35.9646L20.2793 41.7529H20.7527Z" fill="#B1A27B"/>
<path d="M35.5323 35.6612H36.4534V34.1703H34.0977V35.3485H32.3694V34.1703H31.157V35.6612H32.078C32.078 35.6612 32.874 39.9754 29.0916 42.5227C29.0916 42.5227 32.4509 48.0296 32.7992 50.4162L33.1476 52.8028H33.439V44.1041C33.2526 44.0203 33.1006 43.8751 33.0083 43.6927C32.916 43.5103 32.889 43.3018 32.9319 43.1019C32.9747 42.902 33.0848 42.7229 33.2437 42.5944C33.4026 42.4659 33.6008 42.3958 33.8052 42.3958C34.0095 42.3958 34.2077 42.4659 34.3666 42.5944C34.5255 42.7229 34.6356 42.902 34.6785 43.1019C34.7213 43.3018 34.6943 43.5103 34.602 43.6927C34.5098 43.8751 34.3577 44.0203 34.1714 44.1041V52.8028H34.4627L34.8111 50.4162C35.1594 48.0296 38.5188 42.5227 38.5188 42.5227C34.7363 39.9754 35.5323 35.6612 35.5323 35.6612ZM31.6315 45.3304H31.2329L29.8541 42.5596C29.8541 42.5596 31.7397 41.5791 32.1573 39.5141C32.5748 37.4492 32.3929 35.9683 32.3929 35.9683H34.0977L31.6315 45.3304Z" fill="#B1A27B"/>
</g>
<defs>
<clipPath id="clip0_8_6">
<rect width="68" height="79" fill="white"/>
</clipPath>
<clipPath id="clip1_8_6">
<rect width="51.3292" height="59.6396" fill="white" transform="translate(8.17822 12.2814)"/>
</clipPath>
<clipPath id="clip2_8_6">
<rect width="7.62605" height="7.62605" fill="white" transform="translate(30.0786 22.7429)"/>
</clipPath>
</defs>
</svg>
