<svg width="78" height="16" viewBox="0 0 78 16" fill="none" xmlns="http://www.w3.org/2000/svg">
<path d="M11.8116 12.7499C11.9726 13.2185 12.127 13.56 12.2746 13.7742C12.4223 13.975 12.5967 14.1089 12.7981 14.1759C13.0128 14.2295 13.2947 14.2696 13.6436 14.2964V14.7583H8.83197V14.2964C9.28831 14.2696 9.62385 14.2228 9.83859 14.1558C10.0668 14.0889 10.1943 13.9483 10.2211 13.734C10.248 13.5198 10.1808 13.1918 10.0198 12.7499L8.87224 9.29539C8.80513 9.36233 8.70447 9.4092 8.57025 9.43598C8.43603 9.44937 8.29511 9.45606 8.14747 9.45606H5.51012C5.21484 9.45606 4.99339 9.48954 4.84575 9.55648C4.69811 9.62343 4.5706 9.80419 4.46323 10.0988L3.51701 12.7499C3.34253 13.2587 3.34253 13.6403 3.51701 13.8947C3.70491 14.1357 4.22835 14.2696 5.08734 14.2964V14.7583H0.919922V14.2964C1.34941 14.2696 1.68495 14.1357 1.92654 13.8947C2.18156 13.6403 2.40301 13.2587 2.59091 12.7499L6.15436 2.98889C6.28857 2.64076 6.41608 2.29932 6.53687 1.96458C6.65767 1.62984 6.76504 1.28841 6.85899 0.940277H7.84548C7.93943 1.28841 8.0401 1.62984 8.14747 1.96458C8.26826 2.29932 8.39577 2.64076 8.52999 2.98889L11.8116 12.7499ZM8.18773 8.73302C8.36222 8.73302 8.48301 8.71294 8.55012 8.67277C8.61723 8.61921 8.61723 8.51209 8.55012 8.35142L6.89926 3.47091H6.85899L4.92628 8.79328C4.99339 8.7665 5.07392 8.75311 5.16787 8.75311C5.26182 8.73972 5.36919 8.73302 5.48999 8.73302H8.18773Z" fill="white"/>
<path d="M21.8328 15.0596C20.853 15.0596 19.9404 14.8989 19.0948 14.5776C18.2492 14.2428 17.5043 13.7742 16.8601 13.1717C16.2293 12.5558 15.7394 11.826 15.3904 10.9825C15.0415 10.1389 14.867 9.20835 14.867 8.19074C14.867 7.0928 15.0683 6.10866 15.471 5.23834C15.8736 4.35462 16.4239 3.60481 17.1218 2.98889C17.8197 2.37296 18.625 1.90433 19.5377 1.58298C20.4504 1.26163 21.4167 1.10095 22.4368 1.10095C22.9334 1.10095 23.4367 1.13443 23.9467 1.20137C24.4702 1.26832 24.9533 1.36205 25.3963 1.48256C25.8526 1.58967 26.2284 1.71018 26.5237 1.84408V5.01741H26.0606C26.0069 4.22742 25.7855 3.6115 25.3963 3.16965C25.007 2.7144 24.5238 2.39305 23.9467 2.20559C23.383 2.00475 22.7925 1.90433 22.1751 1.90433C21.2221 1.90433 20.3363 2.11856 19.5176 2.54703C18.6989 2.9755 18.0412 3.63159 17.5446 4.5153C17.0614 5.38562 16.8198 6.50365 16.8198 7.86939C16.8198 9.16819 17.048 10.2996 17.5043 11.2637C17.9607 12.2143 18.5646 12.9507 19.3163 13.4729C20.0813 13.9951 20.9269 14.2562 21.8529 14.2562C22.6985 14.2562 23.4434 14.0621 24.0876 13.6738C24.7453 13.2721 25.2822 12.77 25.6982 12.1675C26.1143 11.5649 26.3895 10.9557 26.5237 10.3398H26.9867L26.8659 12.6896C26.3559 13.319 25.6982 13.8746 24.8929 14.3567C24.0876 14.8253 23.0676 15.0596 21.8328 15.0596Z" fill="white"/>
<path d="M28.6598 1.40222H39.5111V4.53538H39.0481C39.0213 4.06675 38.9474 3.65167 38.8266 3.29015C38.7058 2.92863 38.4777 2.64745 38.1421 2.44661C37.8066 2.23237 37.2966 2.12526 36.6121 2.12526H34.9411V12.7499C34.9411 13.2051 34.9881 13.5399 35.082 13.7541C35.1894 13.9684 35.3773 14.1089 35.6457 14.1759C35.9276 14.2428 36.3302 14.283 36.8537 14.2964V14.7583H31.8205V14.2964C32.1829 14.283 32.4648 14.2428 32.6661 14.1759C32.8809 14.1089 33.0285 13.9684 33.109 13.7541C33.1896 13.5399 33.2298 13.2051 33.2298 12.7499V2.12526H31.5387C30.8676 2.12526 30.3643 2.23237 30.0288 2.44661C29.6932 2.64745 29.465 2.92863 29.3443 3.29015C29.2235 3.65167 29.1496 4.06675 29.1228 4.53538H28.6598V1.40222Z" fill="white"/>
<path d="M41.6672 14.7583V14.2964C42.0296 14.283 42.3114 14.2428 42.5128 14.1759C42.7275 14.1089 42.8751 13.9684 42.9557 13.7541C43.0362 13.5399 43.0765 13.2051 43.0765 12.7499V3.41066C43.0765 2.94202 43.0228 2.60728 42.9154 2.40644C42.8215 2.1922 42.6403 2.05161 42.3718 1.98467C42.1034 1.91772 41.7008 1.87755 41.1639 1.86416V1.40222H43.0765C43.9891 1.40222 44.7273 1.38883 45.291 1.36205C45.8682 1.32188 46.3312 1.3018 46.6802 1.3018C48.076 1.3018 49.1967 1.57628 50.0423 2.12526C50.8879 2.66084 51.3106 3.43074 51.3106 4.43496C51.3106 4.91699 51.1966 5.39232 50.9684 5.86095C50.7536 6.32959 50.4047 6.75136 49.9215 7.12627C49.4383 7.48779 48.8075 7.76228 48.0291 7.94973C47.2506 8.1238 46.3044 8.15727 45.1904 8.05015V7.44762C46.2641 7.54135 47.103 7.46101 47.7069 7.20661C48.3243 6.93882 48.7605 6.5706 49.0155 6.10197C49.2706 5.61994 49.3981 5.10444 49.3981 4.55547C49.3981 3.8726 49.2437 3.3504 48.935 2.98889C48.6397 2.61398 48.2438 2.35957 47.7472 2.22568C47.264 2.09178 46.7406 2.02483 46.1769 2.02483C45.7205 2.02483 45.3716 2.10517 45.13 2.26585C44.9018 2.42652 44.7877 2.80813 44.7877 3.41066V12.7499C44.7877 13.2051 44.8347 13.5399 44.9287 13.7541C45.036 13.9684 45.2374 14.1089 45.5326 14.1759C45.8413 14.2428 46.291 14.283 46.8815 14.2964V14.7583H41.6672Z" fill="white"/>
<path d="M53.3456 14.7583V14.2964C53.708 14.283 53.9898 14.2428 54.1912 14.1759C54.3925 14.1089 54.5334 13.9684 54.6139 13.7541C54.7079 13.5399 54.7549 13.2051 54.7549 12.7499V3.41066C54.7549 2.94202 54.7012 2.60728 54.5938 2.40644C54.4998 2.1922 54.3187 2.05161 54.0502 1.98467C53.7818 1.91772 53.3791 1.87755 52.8423 1.86416V1.40222H62.4253V4.21403H61.9623C61.9489 3.78557 61.8817 3.41735 61.761 3.10939C61.6402 2.78804 61.4187 2.54703 61.0966 2.38635C60.7745 2.21229 60.298 2.12526 59.6672 2.12526H57.3519C57.0701 2.12526 56.8486 2.1922 56.6876 2.3261C56.5399 2.46 56.4661 2.82152 56.4661 3.41066V7.18652C56.5735 7.10619 56.701 7.05263 56.8486 7.02585C57.0097 6.99907 57.1976 6.98568 57.4123 6.98568H60.251C61.0429 6.98568 61.459 6.54382 61.4992 5.66011H61.9623V9.07446H61.4992C61.4858 8.52548 61.3919 8.16397 61.2174 7.9899C61.0429 7.80245 60.7208 7.70872 60.251 7.70872H57.4526C57.0902 7.70872 56.8352 7.76897 56.6876 7.88948C56.5399 8.00998 56.4661 8.2443 56.4661 8.59243V12.7499C56.4661 13.3257 56.5668 13.6872 56.7681 13.8345C56.9828 13.9684 57.3922 14.0353 57.9962 14.0353H60.7946C61.4523 14.0353 61.969 13.9282 62.3448 13.714C62.7206 13.4863 62.9957 13.1918 63.1702 12.8302C63.3447 12.4553 63.4521 12.0536 63.4923 11.6252H63.9554L63.7943 14.7583H53.3456Z" fill="white"/>
<path d="M65.625 14.8788C65.2626 14.8788 64.9002 14.8387 64.5378 14.7583V14.2964C64.8465 14.2964 65.1149 14.2629 65.3431 14.196C65.5713 14.129 65.8062 13.9817 66.0477 13.7541C66.2893 13.5265 66.5712 13.1717 66.8933 12.6896L70.3158 7.48779C69.3629 7.30034 68.5777 6.9589 67.9603 6.46349C67.3564 5.95468 67.0544 5.2852 67.0544 4.45505C67.0544 3.87929 67.2087 3.3571 67.5174 2.88846C67.8395 2.40644 68.3294 2.02483 68.9871 1.74365C69.6447 1.44908 70.4836 1.3018 71.5036 1.3018C71.8929 1.3018 72.3224 1.32188 72.7921 1.36205C73.2753 1.38883 73.8189 1.40222 74.4228 1.40222H76.5971V1.86416C76.2348 1.87755 75.9529 1.91772 75.7516 1.98467C75.5503 2.05161 75.4026 2.1922 75.3087 2.40644C75.2281 2.60728 75.1879 2.94202 75.1879 3.41066V12.7499C75.1879 13.2051 75.2348 13.5399 75.3288 13.7541C75.4228 13.9684 75.6039 14.1089 75.8724 14.1759C76.1542 14.2428 76.5569 14.283 77.0803 14.2964V14.7583H72.0673V14.2964C72.4297 14.283 72.7116 14.2428 72.9129 14.1759C73.1277 14.1089 73.2753 13.9684 73.3558 13.7541C73.4364 13.5399 73.4766 13.2051 73.4766 12.7499V3.41066C73.4766 2.79474 73.3558 2.41313 73.1142 2.26585C72.8861 2.10517 72.5304 2.02483 72.0472 2.02483C71.5372 2.02483 71.0406 2.08509 70.5574 2.20559C70.0877 2.3261 69.7051 2.56042 69.4099 2.90855C69.1146 3.24329 68.9669 3.7387 68.9669 4.39479C68.9669 5.35884 69.3293 6.07519 70.0541 6.54382C70.7789 7.01246 71.7855 7.19322 73.074 7.0861V7.68863C72.6847 7.68863 72.3962 7.7288 72.2083 7.80914C72.0338 7.87609 71.8727 8.02337 71.7251 8.251L68.4838 13.2922C68.1751 13.7876 67.8127 14.1759 67.3966 14.4571C66.994 14.7383 66.4034 14.8788 65.625 14.8788Z" fill="white"/>
</svg>
