<svg width="293" height="161" viewBox="0 0 293 161" fill="none" xmlns="http://www.w3.org/2000/svg">
<path d="M140.46 74.8458C140.834 75.9328 141.192 76.7247 141.534 77.2215C141.877 77.6874 142.281 77.9979 142.748 78.1532C143.246 78.2774 143.9 78.3706 144.709 78.4327V79.5041H133.549V78.4327C134.608 78.3706 135.386 78.2619 135.884 78.1066C136.413 77.9513 136.709 77.6253 136.771 77.1284C136.834 76.6315 136.678 75.8706 136.304 74.8458L133.643 66.8336C133.487 66.9889 133.254 67.0976 132.942 67.1597C132.631 67.1908 132.304 67.2063 131.962 67.2063H125.845C125.16 67.2063 124.646 67.2839 124.304 67.4392C123.962 67.5945 123.666 68.0137 123.417 68.6969L121.222 74.8458C120.818 76.0259 120.818 76.911 121.222 77.501C121.658 78.06 122.872 78.3706 124.864 78.4327V79.5041H115.199V78.4327C116.195 78.3706 116.973 78.06 117.533 77.501C118.125 76.911 118.639 76.0259 119.074 74.8458L127.339 52.2067C127.65 51.3993 127.946 50.6074 128.226 49.831C128.507 49.0547 128.756 48.2628 128.973 47.4553H131.261C131.479 48.2628 131.713 49.0547 131.962 49.831C132.242 50.6074 132.538 51.3993 132.849 52.2067L140.46 74.8458ZM132.055 65.5293C132.46 65.5293 132.74 65.4827 132.896 65.3896C133.051 65.2654 133.051 65.0169 132.896 64.6443L129.067 53.3247H128.973L124.491 65.6691C124.646 65.607 124.833 65.5759 125.051 65.5759C125.269 65.5449 125.518 65.5293 125.798 65.5293H132.055Z" fill="#B1A27B"/>
<path d="M163.703 80.2028C161.43 80.2028 159.314 79.8302 157.352 79.0848C155.391 78.3085 153.664 77.2215 152.169 75.8241C150.706 74.3955 149.57 72.703 148.761 70.7466C147.951 68.7901 147.547 66.6318 147.547 64.2716C147.547 61.7251 148.014 59.4426 148.947 57.424C149.881 55.3743 151.158 53.6353 152.776 52.2067C154.395 50.7782 156.263 49.6913 158.38 48.946C160.496 48.2006 162.738 47.828 165.104 47.828C166.255 47.828 167.423 47.9056 168.606 48.0609C169.82 48.2162 170.94 48.4336 171.968 48.7131C173.026 48.9615 173.898 49.241 174.582 49.5515V56.9116H173.509C173.384 55.0793 172.87 53.6508 171.968 52.626C171.065 51.5701 169.944 50.8248 168.606 50.39C167.298 49.9242 165.929 49.6913 164.497 49.6913C162.286 49.6913 160.232 50.1882 158.333 51.1819C156.434 52.1757 154.909 53.6974 153.757 55.747C152.636 57.7656 152.076 60.3587 152.076 63.5263C152.076 66.5386 152.605 69.1628 153.664 71.3987C154.722 73.6036 156.123 75.3117 157.866 76.5228C159.64 77.7339 161.602 78.3395 163.749 78.3395C165.711 78.3395 167.438 77.8892 168.933 76.9886C170.458 76.057 171.703 74.8924 172.668 73.4949C173.633 72.0975 174.271 70.6845 174.582 69.2559H175.656L175.376 74.7061C174.193 76.1657 172.668 77.4544 170.8 78.5724C168.933 79.6594 166.567 80.2028 163.703 80.2028Z" fill="#B1A27B"/>
<path d="M179.537 48.5267H204.705V55.7936H203.631C203.569 54.7067 203.397 53.744 203.117 52.9055C202.837 52.067 202.308 51.4148 201.53 50.949C200.751 50.4521 199.568 50.2037 197.981 50.2037H194.105V74.8458C194.105 75.9017 194.214 76.6781 194.432 77.175C194.681 77.6718 195.117 77.9979 195.74 78.1532C196.393 78.3085 197.327 78.4016 198.541 78.4327V79.5041H186.868V78.4327C187.708 78.4016 188.362 78.3085 188.829 78.1532C189.327 77.9979 189.669 77.6718 189.856 77.175C190.043 76.6781 190.136 75.9017 190.136 74.8458V50.2037H186.214C184.658 50.2037 183.49 50.4521 182.712 50.949C181.934 51.4148 181.405 52.067 181.124 52.9055C180.844 53.744 180.673 54.7067 180.611 55.7936H179.537V48.5267Z" fill="#B1A27B"/>
<path d="M209.705 79.5041V78.4327C210.546 78.4016 211.2 78.3085 211.667 78.1532C212.165 77.9979 212.507 77.6718 212.694 77.175C212.881 76.6781 212.974 75.9017 212.974 74.8458V53.185C212.974 52.098 212.849 51.3217 212.6 50.8558C212.383 50.359 211.962 50.0329 211.34 49.8776C210.717 49.7223 209.783 49.6292 208.538 49.5981V48.5267H212.974C215.091 48.5267 216.803 48.4957 218.11 48.4336C219.449 48.3404 220.523 48.2938 221.332 48.2938C224.57 48.2938 227.169 48.9304 229.13 50.2037C231.091 51.4459 232.072 53.2316 232.072 55.5607C232.072 56.6787 231.807 57.7811 231.278 58.868C230.78 59.955 229.971 60.9332 228.85 61.8027C227.729 62.6412 226.266 63.2778 224.461 63.7126C222.655 64.1163 220.461 64.194 217.877 63.9455V62.548C220.367 62.7654 222.313 62.5791 223.714 61.9891C225.146 61.368 226.157 60.5139 226.749 59.427C227.34 58.309 227.636 57.1134 227.636 55.8402C227.636 54.2564 227.278 53.0452 226.562 52.2067C225.877 51.3372 224.959 50.7472 223.807 50.4366C222.686 50.1261 221.472 49.9708 220.165 49.9708C219.106 49.9708 218.297 50.1571 217.737 50.5298C217.208 50.9024 216.943 51.7875 216.943 53.185V74.8458C216.943 75.9017 217.052 76.6781 217.27 77.175C217.519 77.6718 217.986 77.9979 218.671 78.1532C219.387 78.3085 220.429 78.4016 221.799 78.4327V79.5041H209.705Z" fill="#B1A27B"/>
<path d="M236.792 79.5041V78.4327C237.632 78.4016 238.286 78.3085 238.753 78.1532C239.22 77.9979 239.547 77.6718 239.733 77.175C239.951 76.6781 240.06 75.9017 240.06 74.8458V53.185C240.06 52.098 239.936 51.3217 239.687 50.8558C239.469 50.359 239.048 50.0329 238.426 49.8776C237.803 49.7223 236.869 49.6292 235.624 49.5981V48.5267H257.851V55.0483H256.777C256.745 54.0545 256.59 53.2005 256.31 52.4862C256.029 51.7409 255.516 51.1819 254.769 50.8093C254.022 50.4055 252.917 50.2037 251.453 50.2037H246.084C245.43 50.2037 244.916 50.359 244.543 50.6695C244.2 50.9801 244.029 51.8185 244.029 53.185V61.9425C244.278 61.7561 244.574 61.6319 244.916 61.5698C245.29 61.5077 245.726 61.4767 246.224 61.4767H252.808C254.644 61.4767 255.609 60.4518 255.703 58.4022H256.777V66.3212H255.703C255.671 65.048 255.454 64.2095 255.049 63.8058C254.644 63.371 253.897 63.1536 252.808 63.1536H246.317C245.477 63.1536 244.885 63.2934 244.543 63.5729C244.2 63.8524 244.029 64.3958 244.029 65.2033V74.8458C244.029 76.1812 244.263 77.0197 244.73 77.3613C245.228 77.6718 246.177 77.8271 247.578 77.8271H254.068C255.594 77.8271 256.792 77.5787 257.664 77.0818C258.535 76.5539 259.174 75.8706 259.578 75.0322C259.983 74.1626 260.232 73.231 260.325 72.2372H261.399L261.026 79.5041H236.792Z" fill="#B1A27B"/>
<path d="M265.272 79.7836C264.431 79.7836 263.591 79.6904 262.75 79.5041V78.4327C263.466 78.4327 264.089 78.355 264.618 78.1998C265.147 78.0445 265.692 77.7029 266.252 77.175C266.812 76.647 267.466 75.8241 268.213 74.7061L276.151 62.6412C273.941 62.2064 272.12 61.4145 270.688 60.2655C269.287 59.0854 268.587 57.5327 268.587 55.6073C268.587 54.2719 268.945 53.0607 269.661 51.9738C270.408 50.8558 271.544 49.9708 273.069 49.3186C274.595 48.6354 276.54 48.2938 278.906 48.2938C279.809 48.2938 280.805 48.3404 281.895 48.4336C283.015 48.4957 284.276 48.5267 285.677 48.5267H290.72V49.5981C289.879 49.6292 289.226 49.7223 288.759 49.8776C288.292 50.0329 287.949 50.359 287.731 50.8558C287.545 51.3217 287.451 52.098 287.451 53.185V74.8458C287.451 75.9017 287.56 76.6781 287.778 77.175C287.996 77.6718 288.416 77.9979 289.039 78.1532C289.692 78.3085 290.626 78.4016 291.84 78.4327V79.5041H280.214V78.4327C281.054 78.4016 281.708 78.3085 282.175 78.1532C282.673 77.9979 283.015 77.6718 283.202 77.175C283.389 76.6781 283.482 75.9017 283.482 74.8458V53.185C283.482 51.7564 283.202 50.8714 282.642 50.5298C282.113 50.1571 281.288 49.9708 280.167 49.9708C278.984 49.9708 277.832 50.1105 276.712 50.39C275.622 50.6695 274.735 51.213 274.05 52.0204C273.365 52.7968 273.023 53.9458 273.023 55.4675C273.023 57.7035 273.863 59.3649 275.544 60.4518C277.225 61.5388 279.56 61.958 282.548 61.7096V63.107C281.646 63.107 280.976 63.2002 280.54 63.3865C280.136 63.5418 279.762 63.8834 279.42 64.4114L271.902 76.1036C271.186 77.2526 270.346 78.1532 269.381 78.8053C268.447 79.4575 267.077 79.7836 265.272 79.7836Z" fill="#B1A27B"/>
<path d="M116.416 114.777V114.441C116.728 114.421 116.991 114.329 117.205 114.163C117.429 113.988 117.648 113.706 117.862 113.316L119.703 110.014C119.781 109.868 119.825 109.742 119.834 109.635C119.844 109.518 119.81 109.381 119.732 109.226L118.257 106.523C118.081 106.192 117.926 105.948 117.789 105.793C117.653 105.637 117.507 105.535 117.351 105.486C117.195 105.437 116.995 105.408 116.752 105.398V105.062H120.156V105.398C119.747 105.418 119.489 105.491 119.382 105.617C119.284 105.744 119.367 106.046 119.63 106.523L120.842 108.729H120.872L122.113 106.523C122.328 106.143 122.396 105.866 122.318 105.69C122.25 105.515 122.001 105.418 121.573 105.398V105.062H124.232V105.398C123.939 105.418 123.691 105.51 123.487 105.676C123.292 105.841 123.078 106.124 122.844 106.523L121.485 108.86C121.32 109.133 121.31 109.411 121.456 109.693L123.457 113.316C123.652 113.657 123.813 113.905 123.939 114.061C124.066 114.207 124.198 114.305 124.334 114.353C124.47 114.392 124.636 114.421 124.831 114.441V114.777H121.514V114.441C121.807 114.421 122.021 114.387 122.157 114.339C122.303 114.29 122.371 114.188 122.362 114.032C122.352 113.876 122.255 113.637 122.07 113.316L120.346 110.175H120.316L118.607 113.316C118.393 113.706 118.354 113.988 118.49 114.163C118.627 114.329 118.958 114.421 119.484 114.441V114.777H116.416ZM148.087 104.843C148.749 104.843 149.372 104.96 149.957 105.194C150.541 105.427 151.062 105.768 151.52 106.216C151.978 106.655 152.333 107.185 152.586 107.809C152.849 108.432 152.981 109.128 152.981 109.898C152.981 110.667 152.849 111.363 152.586 111.987C152.333 112.61 151.978 113.146 151.52 113.594C151.072 114.042 150.551 114.387 149.957 114.631C149.363 114.874 148.735 114.996 148.072 114.996C147.42 114.996 146.796 114.879 146.202 114.645C145.618 114.412 145.097 114.076 144.639 113.637C144.191 113.189 143.836 112.654 143.573 112.03C143.32 111.407 143.193 110.711 143.193 109.941C143.193 109.172 143.32 108.476 143.573 107.852C143.836 107.229 144.191 106.693 144.639 106.245C145.097 105.797 145.618 105.452 146.202 105.208C146.796 104.965 147.425 104.843 148.087 104.843ZM148.291 114.412C148.876 114.412 149.411 114.251 149.898 113.93C150.395 113.608 150.794 113.136 151.096 112.513C151.398 111.879 151.549 111.1 151.549 110.175C151.549 109.162 151.374 108.305 151.023 107.604C150.673 106.893 150.22 106.353 149.665 105.983C149.109 105.612 148.515 105.427 147.882 105.427C147.298 105.427 146.758 105.588 146.261 105.909C145.764 106.231 145.365 106.708 145.063 107.341C144.761 107.964 144.61 108.739 144.61 109.664C144.61 110.677 144.785 111.539 145.136 112.25C145.487 112.951 145.944 113.486 146.509 113.857C147.074 114.227 147.668 114.412 148.291 114.412ZM173.569 113.316C173.442 113.686 173.442 113.964 173.569 114.149C173.705 114.324 174.085 114.421 174.708 114.441V114.777H171.684V114.441C171.996 114.421 172.244 114.324 172.429 114.149C172.614 113.964 172.77 113.686 172.897 113.316L175.263 106.216C175.351 105.963 175.439 105.715 175.526 105.471C175.624 105.228 175.707 104.979 175.775 104.726H176.491C176.559 104.979 176.637 105.228 176.724 105.471C176.822 105.705 176.909 105.953 176.987 106.216L179.149 113.316C179.256 113.657 179.364 113.905 179.471 114.061C179.578 114.217 179.709 114.314 179.865 114.353C180.021 114.392 180.225 114.421 180.479 114.441V114.777H176.987V114.441C177.318 114.421 177.562 114.387 177.718 114.339C177.883 114.29 177.976 114.188 177.995 114.032C178.015 113.876 177.966 113.637 177.849 113.316L175.804 106.567H175.775L173.569 113.316ZM203.859 106.216L206.021 113.316C206.089 113.521 206.163 113.696 206.24 113.842C206.318 113.978 206.445 114.095 206.62 114.193C206.796 114.29 207.054 114.373 207.395 114.441L206.869 117.626H206.533C206.601 116.924 206.567 116.364 206.43 115.946C206.304 115.527 206.124 115.225 205.89 115.04C205.666 114.865 205.442 114.777 205.218 114.777H200.645C200.334 114.777 200.042 114.918 199.769 115.201C199.496 115.483 199.277 115.843 199.111 116.282C198.946 116.72 198.853 117.168 198.834 117.626H198.498V114.441C198.897 114.343 199.214 114.119 199.447 113.769C199.691 113.409 199.886 113.014 200.032 112.586L202.15 106.216C202.238 105.963 202.325 105.715 202.413 105.471C202.51 105.228 202.593 104.979 202.661 104.726H203.377C203.445 104.979 203.523 105.228 203.611 105.471C203.699 105.715 203.781 105.963 203.859 106.216ZM203.83 114.251C204.161 114.241 204.4 114.217 204.546 114.178C204.702 114.139 204.784 114.056 204.794 113.93C204.814 113.793 204.78 113.589 204.692 113.316L202.691 106.567H202.661L200.134 114.251H203.83ZM226.032 114.777V114.441C226.295 114.431 226.5 114.402 226.646 114.353C226.802 114.305 226.909 114.202 226.967 114.046C227.026 113.891 227.055 113.647 227.055 113.316V106.523C227.055 106.182 227.016 105.939 226.938 105.793C226.87 105.637 226.738 105.535 226.544 105.486C226.349 105.437 226.057 105.408 225.667 105.398V105.062H229.319V105.398C229.056 105.408 228.852 105.437 228.706 105.486C228.56 105.535 228.453 105.637 228.384 105.793C228.326 105.939 228.297 106.182 228.297 106.523V113.228L233.848 105.062H235.82V105.398C235.557 105.408 235.353 105.437 235.207 105.486C235.06 105.535 234.953 105.637 234.885 105.793C234.827 105.939 234.798 106.182 234.798 106.523V113.316C234.798 113.647 234.832 113.891 234.9 114.046C234.968 114.202 235.099 114.305 235.294 114.353C235.499 114.402 235.791 114.431 236.171 114.441V114.777H232.533V114.441C232.796 114.431 233.001 114.402 233.147 114.353C233.303 114.305 233.41 114.202 233.468 114.046C233.527 113.891 233.556 113.647 233.556 113.316V106.625L228.005 114.777H226.032ZM255.699 114.777V114.441C255.962 114.431 256.167 114.402 256.313 114.353C256.469 114.305 256.576 114.202 256.634 114.046C256.693 113.891 256.722 113.647 256.722 113.316V106.523C256.722 106.182 256.683 105.939 256.605 105.793C256.537 105.637 256.405 105.535 256.21 105.486C256.016 105.437 255.723 105.408 255.334 105.398V105.062H258.986V105.398C258.723 105.408 258.519 105.437 258.372 105.486C258.226 105.535 258.119 105.637 258.051 105.793C257.993 105.939 257.963 106.182 257.963 106.523V109.08C258.041 109.021 258.134 108.982 258.241 108.963C258.358 108.943 258.494 108.933 258.65 108.933H262.507C262.77 108.933 262.955 108.89 263.062 108.802C263.169 108.714 263.223 108.539 263.223 108.276V106.523C263.223 106.182 263.184 105.939 263.106 105.793C263.037 105.637 262.906 105.535 262.711 105.486C262.516 105.437 262.224 105.408 261.835 105.398V105.062H265.487V105.398C265.224 105.408 265.019 105.437 264.873 105.486C264.727 105.535 264.62 105.637 264.552 105.793C264.493 105.939 264.464 106.182 264.464 106.523V113.316C264.464 113.647 264.498 113.891 264.567 114.046C264.635 114.202 264.766 114.305 264.961 114.353C265.165 114.402 265.458 114.431 265.837 114.441V114.777H262.2V114.441C262.463 114.431 262.667 114.402 262.813 114.353C262.969 114.305 263.076 114.202 263.135 114.046C263.193 113.891 263.223 113.647 263.223 113.316V109.299C263.145 109.367 263.047 109.411 262.93 109.43C262.813 109.45 262.682 109.459 262.536 109.459H258.679C258.416 109.459 258.231 109.503 258.124 109.591C258.017 109.678 257.963 109.849 257.963 110.102V113.316C257.963 113.647 257.998 113.891 258.066 114.046C258.144 114.202 258.28 114.305 258.475 114.353C258.67 114.402 258.957 114.431 259.337 114.441V114.777H255.699ZM291.648 105.062V107.487H291.312C291.282 107.117 291.214 106.791 291.107 106.508C291.01 106.226 290.834 106.002 290.581 105.836C290.338 105.671 289.972 105.588 289.486 105.588H288.273C288.068 105.588 287.908 105.637 287.791 105.734C287.684 105.832 287.63 106.095 287.63 106.523V113.316C287.63 113.647 287.664 113.891 287.732 114.046C287.81 114.202 287.947 114.305 288.142 114.353C288.346 114.402 288.638 114.431 289.018 114.441V114.777H285.366V114.441C285.629 114.431 285.833 114.402 285.979 114.353C286.135 114.305 286.242 114.202 286.301 114.046C286.359 113.891 286.388 113.647 286.388 113.316V106.523C286.388 106.182 286.35 105.939 286.272 105.793C286.203 105.637 286.072 105.535 285.877 105.486C285.682 105.437 285.39 105.408 285.001 105.398V105.062H291.648Z" fill="#B1A27B"/>
<line x1="116.653" y1="93.0043" x2="292.305" y2="93.0043" stroke="#58564F" stroke-width="1.09782"/>
<path d="M83.1158 49.3228C67.9767 38.4199 42.8863 39.1252 42.8863 39.1252C42.8863 39.1252 17.7959 38.4199 2.65676 49.3228C2.65676 49.3228 0.338041 85.5496 2.65676 106.073C3.96754 117.664 20.119 133.166 42.8863 137.077C65.6536 133.166 81.8073 117.664 83.1158 106.073C85.4345 85.5496 83.1158 49.3228 83.1158 49.3228Z" stroke="#B1A27B" stroke-width="1.21738" stroke-miterlimit="10"/>
<g clip-path="url(#clip0_8_369)">
<path fill-rule="evenodd" clip-rule="evenodd" d="M61.2311 61.8515C60.2168 61.9304 59.2046 62.0078 58.1944 62.0838C58.9611 62.6003 59.7292 63.1169 60.4986 63.6337C61.5107 63.5559 62.5225 63.4784 63.5338 63.4014C62.7671 62.8837 61.9964 62.3685 61.2311 61.8515ZM61.3968 61.6065C61.084 60.6366 60.7724 59.6699 60.4622 58.7063C61.2311 59.2213 62.0006 59.7393 62.7671 60.2532C63.0776 61.218 63.389 62.1851 63.7015 63.1547C62.9309 62.6362 62.1627 62.12 61.3968 61.606V61.6065ZM64.0719 64.2762C63.0562 64.2076 62.047 64.1397 61.0328 64.0708C61.7216 64.6916 62.4081 65.3123 63.0924 65.9331C64.1067 66.0025 65.1193 66.0712 66.1301 66.1392C65.4459 65.5204 64.7583 64.8957 64.0719 64.2762ZM64.2714 64.0559C64.1031 63.0534 63.9328 62.0521 63.7606 61.0521C64.4505 61.6724 65.138 62.2928 65.8231 62.9134C65.9918 63.9154 66.162 64.9168 66.3336 65.9176C65.645 65.2964 64.9598 64.6749 64.2714 64.0559ZM66.5858 67.0369C65.5944 66.8248 64.6021 66.6117 63.6089 66.3977C64.2019 67.1096 64.7927 67.8229 65.3813 68.5376C66.3744 68.7479 67.3677 68.9604 68.3612 69.1753C67.7698 68.4614 67.1779 67.7486 66.5858 67.0369ZM66.8178 66.8458C66.7952 65.8311 66.7702 64.8165 66.7429 63.8019C67.3316 64.5129 67.9255 65.2265 68.5139 65.9396C68.5385 66.955 68.5634 67.9704 68.5887 68.9857C67.9982 68.2735 67.4074 67.5602 66.8163 66.846L66.8178 66.8458ZM68.7384 70.0893C67.7852 69.7371 66.8337 69.3848 65.8839 69.0321C66.3647 69.8212 66.8457 70.6106 67.3271 71.4004C68.2824 71.7572 69.2343 72.1115 70.1828 72.4635C69.7022 71.6731 69.2207 70.8817 68.7384 70.0893ZM68.993 69.9353C69.1152 68.9281 69.2375 67.9179 69.3579 66.9126C69.8391 67.7006 70.3192 68.4942 70.8024 69.2829C70.6826 70.2916 70.5587 71.2976 70.4382 72.3083C69.9536 71.5152 69.4752 70.726 68.993 69.9348V69.9353ZM70.4564 73.3894C69.5435 72.9443 68.6309 72.5001 67.7187 72.0568C68.12 72.8904 68.5251 73.724 68.9269 74.5563C69.839 75.0039 70.7518 75.4487 71.6654 75.8906C71.263 75.0578 70.86 74.2241 70.4564 73.3894ZM70.723 73.2607C70.9453 72.2664 71.1645 71.2771 71.3835 70.2834C71.7873 71.1207 72.1917 71.9525 72.5922 72.7888C72.372 73.7786 72.1513 74.7724 71.9335 75.7624C71.5329 74.9258 71.1291 74.0945 70.723 73.2607ZM71.7542 76.8959C70.9161 76.3197 70.0792 75.7445 69.2434 75.1703C69.52 76.0519 69.795 76.937 70.0685 77.8258C70.9056 78.3979 71.7434 78.9718 72.582 79.5473C72.3042 78.6631 72.0282 77.7793 71.7542 76.8961V76.8959ZM72.0403 76.8065C72.4018 75.8584 72.7648 74.9103 73.1295 73.9622C73.4074 74.8442 73.6782 75.7297 73.9539 76.6117C73.5919 77.5624 73.2291 78.5105 72.8656 79.456C72.5887 78.5733 72.3136 77.6896 72.0403 76.805V76.8065ZM72.5855 80.5221C71.8108 79.8647 71.0356 79.2086 70.2599 78.5538C70.4449 79.4622 70.6308 80.3667 70.8153 81.2768C71.5923 81.932 72.365 82.5872 73.1415 83.2436C72.9547 82.3367 72.7701 81.4268 72.5855 80.5221ZM72.8776 80.4632C73.3345 79.5539 73.7912 78.6463 74.2477 77.7404C74.4318 78.6474 74.6175 79.555 74.8049 80.4632C74.3457 81.3696 73.892 82.2768 73.4348 83.1828C73.2505 82.2758 73.0627 81.3686 72.8776 80.4632ZM72.9417 84.2441C72.2757 83.479 71.6088 82.713 70.941 81.946C70.9887 82.8706 71.0328 83.7973 71.0785 84.7222C71.7464 85.4856 72.4136 86.2546 73.0809 87.0176C73.0372 86.0919 72.9881 85.1685 72.9417 84.2454V84.2441ZM73.241 84.2274C73.8291 83.3997 74.4171 82.5724 75.0049 81.7454C75.0518 82.67 75.0962 83.5917 75.1444 84.5188C74.5525 85.3479 73.9678 86.174 73.3802 87.0028C73.332 86.0797 73.2879 85.1531 73.241 84.2274ZM72.8352 87.9649C72.2505 87.1349 71.665 86.3052 71.0787 85.4757C71.0308 86.3988 70.9832 87.3274 70.9358 88.2531C71.5202 89.0787 72.1049 89.9088 72.6925 90.7359C72.7384 89.8127 72.7878 88.8896 72.8352 87.9649ZM73.1345 87.9794C73.8029 87.2157 74.4742 86.4507 75.1399 85.686C75.0943 86.6131 75.047 87.5384 74.9979 88.4619C74.3295 89.2261 73.6602 89.9896 72.9901 90.7526C73.04 89.8274 73.0866 88.9063 73.1345 87.9794ZM72.2468 91.6528C71.7918 90.7459 71.337 89.8399 70.8824 88.9347C70.6959 89.8389 70.5088 90.7449 70.3212 91.6528C70.7758 92.5593 71.2313 93.4672 71.6876 94.3766C71.8734 93.4704 72.0617 92.5605 72.2468 91.6528ZM72.5391 91.7142C73.3143 91.0611 74.0909 90.4074 74.8687 89.7528C74.6794 90.6598 74.4959 91.566 74.3078 92.4744C73.5306 93.1289 72.7545 93.7834 71.9796 94.4379C72.1667 93.5298 72.3532 92.6218 72.5391 91.7142ZM71.1964 95.2441C70.8817 94.2765 70.5667 93.3107 70.2516 92.3466C69.9314 93.2159 69.6128 94.0845 69.2961 94.9524C69.6074 95.9192 69.9241 96.8843 70.2374 97.8484C70.5569 96.9813 70.8742 96.1113 71.1964 95.2441ZM71.4753 95.3471C72.3421 94.8149 73.2079 94.2838 74.0726 93.7541C73.7503 94.6201 73.4326 95.4878 73.1123 96.3611C72.2476 96.8917 71.3829 97.4227 70.5183 97.9541C70.8368 97.0851 71.1573 96.2136 71.4748 95.3471H71.4753ZM69.6857 98.645C69.4664 97.6508 69.2502 96.6592 69.0299 95.6687C68.6264 96.4983 68.2223 97.3369 67.8197 98.171C68.039 99.1607 68.2597 100.151 68.4752 101.144C68.8801 100.311 69.2836 99.4775 69.6857 98.645ZM69.9548 98.7723C70.8682 98.3291 71.7806 97.8825 72.6923 97.4404C72.2899 98.2728 71.8886 99.1086 71.486 99.9412C70.5715 100.385 69.6582 100.83 68.7463 101.276C69.1497 100.438 69.5525 99.6071 69.9548 98.7723ZM67.7544 101.837C67.679 100.827 67.6052 99.8145 67.5329 98.7997C67.0141 99.5667 66.4978 100.332 65.976 101.099C66.0493 102.112 66.1206 103.125 66.1972 104.138C66.7157 103.371 67.2347 102.605 67.7544 101.837ZM68.0016 102.007C68.9687 101.7 69.9362 101.392 70.9041 101.084C70.3848 101.849 69.8643 102.618 69.3462 103.384C68.3763 103.69 67.4084 103.997 66.4426 104.307C66.9617 103.535 67.4822 102.773 68.0016 102.006V102.007ZM65.4444 104.754C65.4667 103.738 65.4908 102.722 65.5168 101.707C64.9236 102.421 64.3333 103.135 63.7458 103.848C63.7206 104.862 63.6963 105.878 63.673 106.894C64.262 106.178 64.8523 105.465 65.4439 104.754H65.4444ZM65.6722 104.943C66.6646 104.732 67.6573 104.515 68.6486 104.304C68.0598 105.015 67.4694 105.728 66.8776 106.444C65.8878 106.655 64.8953 106.868 63.9002 107.083C64.4917 106.371 65.082 105.657 65.6712 104.943H65.6722ZM62.7596 107.351C62.9259 106.35 63.0941 105.348 63.2642 104.347C62.578 104.969 61.8915 105.59 61.2049 106.21C61.0375 107.214 60.8693 108.216 60.7004 109.217C61.3844 108.596 62.0709 107.974 62.7596 107.351ZM62.9612 107.572C63.9696 107.503 64.9843 107.434 65.9977 107.363C65.3122 107.985 64.6231 108.607 63.9389 109.229C62.9246 109.3 61.9117 109.37 60.9001 109.438C61.5866 108.815 62.2736 108.193 62.9612 107.572ZM59.7712 109.592C60.0819 108.625 60.3926 107.658 60.7036 106.692C59.9344 107.208 59.1661 107.725 58.3987 108.242C58.0854 109.209 57.7781 110.175 57.4651 111.142C58.2343 110.624 59.0015 110.11 59.7712 109.592ZM59.9359 109.84C60.949 109.914 61.959 109.993 62.9726 110.07C62.2054 110.588 61.4354 111.102 60.6679 111.622C59.6568 111.545 58.6449 111.468 57.6324 111.39C58.4009 110.872 59.1699 110.359 59.9359 109.84ZM56.5374 111.431C56.94 110.497 57.3429 109.565 57.7462 108.637C56.9314 109.075 56.1166 109.515 55.3018 109.955C54.8979 110.887 54.4954 111.818 54.0943 112.75L56.5369 111.431H56.5374ZM56.6804 111.695C57.6781 111.87 58.6808 112.043 59.6807 112.215C58.8646 112.658 58.0498 113.099 57.2363 113.537C56.2341 113.362 55.2336 113.188 54.2347 113.015C55.0479 112.574 55.8627 112.133 56.6791 111.695L56.6804 111.695ZM53.0747 112.834C53.6099 111.972 54.1444 111.11 54.6782 110.247C53.8115 110.563 52.9385 110.878 52.0705 111.193C51.5315 112.055 50.9994 112.917 50.4637 113.782C51.3327 113.464 52.203 113.148 53.0747 112.834V112.834ZM53.1774 113.115C54.1392 113.435 55.1027 113.754 56.068 114.071C55.1975 114.391 54.3269 114.707 53.456 115.019C52.4942 114.7 51.5287 114.379 50.5627 114.063C51.4337 113.747 52.3054 113.429 53.1767 113.115H53.1774ZM58.1043 60.848L56.065 58.4451L59.1307 59.1771L61.1695 61.5808L58.1048 60.848H58.1043ZM48.6641 55.8481C51.1223 56.2684 53.5177 56.9977 55.7932 58.0187L55.4996 58.4548C53.3156 57.4829 51.0202 56.7837 48.6653 56.373V55.8491L48.6641 55.8481ZM48.6641 58.0292C51.9633 58.6398 55.1231 59.849 57.9874 61.597L57.6998 62.0257C54.922 60.333 51.8607 59.1575 48.6641 58.5561V58.0292ZM48.6641 53.9082C52.7763 54.5672 56.7172 56.0349 60.2591 58.2263L59.9705 58.6534C56.5142 56.5195 52.6728 55.0848 48.6641 54.4307V53.9082V53.9082Z" fill="#B1A27B"/>
<path fill-rule="evenodd" clip-rule="evenodd" d="M25.1524 61.8515C26.1632 61.9304 27.1762 62.0078 28.1914 62.0838C27.4193 62.6003 26.65 63.1169 25.8834 63.6337C24.8711 63.5559 23.8591 63.4784 22.8474 63.4014C23.6145 62.8838 24.3828 62.3672 25.1524 61.8515ZM24.9845 61.6065C25.2974 60.6366 25.6085 59.6699 25.9176 58.7063C25.1496 59.2213 24.3806 59.7393 23.6134 60.2532C23.3024 61.2185 22.9886 62.1871 22.681 63.1547C23.4484 62.6362 24.2163 62.12 24.9845 61.606V61.6065ZM22.3089 64.2762C23.3232 64.2076 24.3352 64.1392 25.3447 64.0708C24.6589 64.6916 23.9732 65.3127 23.2877 65.9341C22.2733 66.0035 21.2607 66.0721 20.2496 66.1402C20.9361 65.5214 21.6202 64.8967 22.3087 64.2772L22.3089 64.2762ZM22.1081 64.0559C22.2796 63.0534 22.449 62.0521 22.6164 61.0521C21.9314 61.6724 21.2454 62.2928 20.5587 62.9134C20.3864 63.9154 20.2166 64.9168 20.0491 65.9176C20.7352 65.2964 21.4215 64.6758 22.1081 64.0559ZM19.7924 67.0369C20.7842 66.8248 21.7796 66.61 22.7711 66.3977C22.1808 67.1096 21.5897 67.8229 20.9979 68.5376C20.0072 68.7479 19.0125 68.9618 18.02 69.1753C18.6125 68.4616 19.2033 67.7488 19.7924 67.0369ZM19.5652 66.8458C19.5877 65.8311 19.6114 64.8165 19.6366 63.8019C19.0484 64.5129 18.4581 65.2255 17.8656 65.9396C17.8407 66.955 17.8157 67.9704 17.7908 68.9857C18.3837 68.2734 18.9726 67.5591 19.5647 66.846L19.5652 66.8458ZM17.6429 70.0893C18.5919 69.738 19.5426 69.3859 20.4951 69.0331C20.0147 69.8222 19.5334 70.6116 19.0512 71.4014C18.0997 71.7582 17.1486 72.1125 16.198 72.4645C16.6777 71.6741 17.1587 70.8827 17.6409 70.0903L17.6429 70.0893ZM17.388 69.9353C17.2665 68.9281 17.142 67.9179 17.0233 66.9126C16.5429 67.7006 16.059 68.4942 15.5767 69.2829C15.6986 70.2916 15.8203 71.2976 15.9441 72.3083C16.4254 71.5152 16.9068 70.7241 17.3882 69.9348L17.388 69.9353ZM15.9219 73.3904C16.8333 72.9453 17.7462 72.5011 18.6606 72.0578C18.255 72.8914 17.8564 73.725 17.4513 74.5573C16.5419 75.0049 15.6273 75.4475 14.7146 75.8916C15.1152 75.0588 15.52 74.2255 15.9219 73.3904ZM15.6547 73.2617C15.436 72.2674 15.2145 71.2781 14.9977 70.2844C14.5927 71.1217 14.1906 71.9535 13.7848 72.7898C14.0058 73.7796 14.2283 74.7734 14.4438 75.7634C14.8478 74.9268 15.2487 74.0955 15.6547 73.2617ZM14.6233 76.8969C15.4637 76.3207 16.3012 75.7455 17.1358 75.1713C16.8614 76.0533 16.5843 76.9395 16.3097 77.8267C15.4731 78.3989 14.6366 78.9728 13.8002 79.5483C14.0748 78.6641 14.3491 77.7803 14.6233 76.8971V76.8969ZM14.3385 76.8075C13.9781 75.8594 13.6122 74.9113 13.2498 73.9632C12.9731 74.8455 12.6968 75.7309 12.4247 76.6127C12.7887 77.5634 13.1511 78.5115 13.5119 79.457C13.7894 78.5754 14.065 77.6923 14.3385 76.8075ZM13.7935 80.5231C14.5697 79.8657 15.3447 79.2096 16.1184 78.5548C15.9338 79.4632 15.749 80.3677 15.5642 81.2778C14.7878 81.933 14.0128 82.5886 13.239 83.2446C13.4246 82.3377 13.6069 81.4278 13.7935 80.5231ZM13.5009 80.4642C13.0423 79.5549 12.5865 78.6473 12.1336 77.7414C11.9497 78.6483 11.7594 79.5573 11.5766 80.4642C12.0329 81.3707 12.4892 82.2772 12.9455 83.1838C13.1299 82.2767 13.315 81.3702 13.5009 80.4642ZM13.4368 84.2451C14.1043 83.4794 14.7737 82.7132 15.4375 81.947C15.3922 82.8716 15.3463 83.797 15.2998 84.7232C14.6331 85.4866 13.9679 86.2556 13.2986 87.0186C13.3447 86.0929 13.3908 85.1689 13.4368 84.2464V84.2451ZM13.1375 84.2284C12.548 83.4007 11.9595 82.5734 11.3718 81.7464C11.3282 82.671 11.2795 83.5927 11.2334 84.5198C11.8243 85.3489 12.4092 86.175 12.9983 87.0038C13.0444 86.0807 13.0908 85.1556 13.1375 84.2284ZM13.5451 87.9649C14.1307 87.1349 14.7166 86.3052 15.3028 85.4757C15.3504 86.3988 15.3983 87.3274 15.4477 88.2531C14.862 89.0787 14.2754 89.9088 13.687 90.7359C13.6399 89.8127 13.5926 88.8891 13.5451 87.9649ZM13.2458 87.9794C12.5766 87.2159 11.908 86.4515 11.2399 85.6862C11.2861 86.6134 11.3342 87.5387 11.3841 88.4622C12.054 89.2263 12.7233 89.9899 13.3919 90.7528C13.342 89.8277 13.2949 88.9065 13.2468 87.9796L13.2458 87.9794ZM14.1347 91.6528C14.5883 90.7459 15.0429 89.8399 15.4983 88.9347C15.6842 89.8389 15.8714 90.7449 16.0598 91.6528C15.6032 92.5595 15.1493 93.4676 14.6982 94.3771C14.5086 93.4709 14.3205 92.561 14.1347 91.6533V91.6528ZM13.8411 91.7142C13.0658 91.061 12.2897 90.4073 11.513 89.7531C11.7004 90.6599 11.8875 91.5671 12.0742 92.4746C12.8483 93.1292 13.6242 93.7837 14.4021 94.4382C14.216 93.53 14.029 92.6221 13.8411 91.7144V91.7142ZM15.1848 95.2438C15.4986 94.2763 15.8128 93.3105 16.1274 92.3464C16.4491 93.2156 16.7692 94.0842 17.0874 94.9522C16.7726 95.9191 16.4581 96.8844 16.1438 97.8481C15.8211 96.9812 15.5014 96.1131 15.1848 95.2438ZM14.9042 95.3469C14.0405 94.8146 13.1758 94.2836 12.3102 93.7538C12.6286 94.6199 12.948 95.4889 13.2685 96.3608C14.1331 96.8914 14.9984 97.4225 15.8642 97.9539C15.542 97.0849 15.224 96.2134 14.9042 95.3469ZM16.6933 98.6448C16.913 97.6506 17.1322 96.6585 17.3511 95.6685C17.7556 96.4981 18.1577 97.3366 18.5615 98.1707C18.3425 99.1606 18.1228 100.152 17.9023 101.144C17.5006 100.31 17.0976 99.4773 16.6933 98.6448ZM16.4262 98.772C15.5098 98.3289 14.6021 97.8823 13.685 97.4402C14.0891 98.2725 14.4916 99.1083 14.895 99.9409C15.8089 100.385 16.7235 100.83 17.6317 101.275C17.2326 100.438 16.8273 99.6068 16.4262 98.772ZM18.6274 101.837C18.7007 100.827 18.7741 99.8145 18.8476 98.7997C19.3659 99.5667 19.8851 100.333 20.405 101.099C20.334 102.112 20.2574 103.125 20.1865 104.138C19.6664 103.371 19.1467 102.605 18.6274 101.837ZM18.3832 102.007C17.4131 101.7 16.4448 101.392 15.4784 101.084C15.9967 101.849 16.5162 102.618 17.0348 103.384C18.0046 103.69 18.972 103.997 19.9371 104.307C19.4198 103.535 18.902 102.773 18.3832 102.006V102.007ZM20.9391 104.754C20.9143 103.738 20.8905 102.722 20.8677 101.707C21.4579 102.421 22.0482 103.135 22.6386 103.848C22.6606 104.863 22.6868 105.879 22.7112 106.894C22.1211 106.178 21.5304 105.465 20.9391 104.754ZM20.7093 104.943C19.7181 104.732 18.7257 104.515 17.7332 104.304C18.3218 105.015 18.9116 105.728 19.5024 106.444C20.4936 106.655 21.4861 106.868 22.48 107.083C21.8879 106.371 21.2976 105.657 20.7091 104.943H20.7093ZM23.6211 107.351C23.4535 106.35 23.2853 105.348 23.1165 104.347C23.8033 104.969 24.4894 105.59 25.1748 106.21C25.3444 107.214 25.5108 108.215 25.6839 109.217C24.997 108.596 24.3094 107.974 23.6211 107.351ZM23.4216 107.572C22.4099 107.503 21.3978 107.433 20.3853 107.363C21.0698 107.985 21.7556 108.607 22.4428 109.229C23.4558 109.3 24.4692 109.37 25.4828 109.438C24.7961 108.815 24.109 108.193 23.4216 107.572ZM26.6103 109.592C26.3 108.625 25.9897 107.658 25.6794 106.692C26.4461 107.208 27.2179 107.725 27.9828 108.242C28.2951 109.208 28.6057 110.175 28.9144 111.142C28.1477 110.624 27.3785 110.11 26.6103 109.592ZM26.4434 109.84C25.4337 109.914 24.4198 109.993 23.4094 110.07C24.1769 110.588 24.9456 111.102 25.7128 111.622C26.7235 111.545 27.7364 111.468 28.7516 111.39C27.9784 110.872 27.2126 110.359 26.4434 109.84ZM29.8463 111.431C29.4392 110.497 29.0397 109.567 28.6343 108.637C29.4491 109.075 30.2639 109.515 31.0787 109.955C31.482 110.887 31.8857 111.818 32.2899 112.75C31.4738 112.312 30.659 111.872 29.8456 111.431H29.8463ZM29.7019 111.695C28.7024 111.871 27.7028 112.044 26.7033 112.215C27.5172 112.658 28.3338 113.097 29.1454 113.537C30.1463 113.362 31.1466 113.188 32.1463 113.015C31.3309 112.574 30.5193 112.133 29.7019 111.695V111.695ZM33.3081 112.834C32.772 111.972 32.2366 111.11 31.702 110.247C32.5704 110.562 33.4409 110.877 34.3135 111.193C34.8466 112.055 35.382 112.918 35.9196 113.781C35.0494 113.463 34.1789 113.147 33.3081 112.833V112.834ZM33.2063 113.115C32.2419 113.435 31.2782 113.754 30.3152 114.071C31.186 114.39 32.0537 114.705 32.9262 115.019C33.8902 114.7 34.8543 114.379 35.8181 114.063C34.9451 113.747 34.0721 113.429 33.2063 113.115ZM28.2772 60.848L30.3155 58.4451L27.2508 59.1771L25.2112 61.5808L28.2772 60.848ZM37.7152 55.8481C35.2573 56.269 32.8623 56.9983 30.5868 58.0187L30.8797 58.4548C33.0643 57.4834 35.36 56.7842 37.7152 56.373V55.8491V55.8481ZM37.7152 58.0292C34.4163 58.6404 31.2568 59.8496 28.3924 61.597L28.6827 62.0257C31.4595 60.3332 34.5197 59.1578 37.7152 58.5561V58.0292ZM37.7152 53.9082C33.604 54.5673 29.6642 56.035 26.1234 58.2263L26.4115 58.6534C29.8669 56.5197 33.7074 55.085 37.7152 54.4307V53.9082V53.9082Z" fill="#B1A27B"/>
<path d="M43.19 60.4663C50.0083 60.4663 56.1823 63.231 60.6498 67.7018C65.1172 72.1726 67.8831 78.3472 67.8831 85.1668C67.8831 91.9864 65.1192 98.1592 60.6498 102.632C56.1803 107.104 50.0083 109.867 43.19 109.867C36.3717 109.867 30.1999 107.103 25.7316 102.632C21.2634 98.161 18.4983 91.9844 18.4983 85.1668C18.4983 78.3492 21.2637 72.1713 25.7316 67.7018C30.1996 63.2323 36.3734 60.4663 43.19 60.4663ZM60.0275 68.3256C55.7181 64.0129 49.7643 61.3458 43.1912 61.3458C36.6181 61.3458 30.6618 64.0127 26.3525 68.3261C22.0449 72.6339 19.3765 78.5895 19.3765 85.1673C19.3765 91.7411 22.0454 97.6979 26.3525 102.01C30.6595 106.322 36.6148 108.987 43.19 108.987C49.7651 108.987 55.7181 106.321 60.0275 102.01C64.3368 97.6992 67.0041 91.7411 67.0041 85.1673C67.0041 78.5887 64.3385 72.6332 60.0275 68.3261V68.3256Z" fill="#B1A27B"/>
<path d="M51.8836 115.276C46.2024 116.908 40.1768 116.908 34.4956 115.276L36.0458 114.761C36.1764 114.719 36.2925 114.641 36.3808 114.536C36.469 114.431 36.5258 114.303 36.5446 114.167C36.6163 114.05 36.6543 113.916 36.6543 113.779C36.6543 113.642 36.6163 113.508 36.5446 113.391L35.513 111.727C40.5304 113.174 45.8545 113.174 50.8719 111.727L49.8383 113.391C49.7443 113.641 49.7427 113.917 49.8338 114.168C49.9248 114.419 50.1025 114.63 50.3349 114.761L51.8836 115.276Z" fill="#B1A27B"/>
</g>
<path d="M56.6255 74.9687C54.3123 74.9256 51.9338 76.3787 49.5567 77.5552C47.0294 78.8067 43.1454 78.8832 43.144 78.8832C43.1426 78.8832 39.2586 78.8039 36.7313 77.5552C34.3542 76.3787 31.9757 74.9256 29.6625 74.9687C27.3493 75.0118 25.3197 76.554 25.392 79.0973C25.4643 81.6406 27.106 82.6266 29.2343 82.6405C31.3626 82.6544 32.376 81.2124 32.2467 79.7828C32.1175 78.3533 30.8802 77.9974 30.0337 78.0975C29.1871 78.1976 28.4906 78.7552 29.0481 80.2695C29.0481 80.2695 27.3799 80.2403 27.7052 78.3686C28.0305 76.4969 30.9762 77.3549 32.1189 77.7971C33.3394 78.2713 33.8468 78.9833 37.1317 79.9122C38.8582 80.4003 43.144 80.3613 43.144 80.3613C43.144 80.3613 47.4298 80.4003 49.1563 79.9122C52.4412 78.9833 52.9486 78.2713 54.1691 77.7971C55.3118 77.3549 58.2533 76.4969 58.5828 78.3686C58.9122 80.2403 57.2399 80.2695 57.2399 80.2695C57.796 78.7552 57.1009 78.1976 56.2543 78.0975C55.4077 77.9974 54.1691 78.3547 54.0412 79.7828C53.9133 81.211 54.9295 82.6544 57.0536 82.6405C59.1778 82.6266 60.8251 81.6406 60.896 79.0973C60.9669 76.554 58.9401 75.0063 56.6255 74.9687Z" fill="#B1A27B"/>
<g clip-path="url(#clip1_8_369)">
<path fill-rule="evenodd" clip-rule="evenodd" d="M39.0625 71.6807V76.1492H40.7382V71.6807H39.0625ZM40.1796 75.5906H39.6093V74.4617H40.1796V75.5906ZM40.1914 73.9149H39.6099V72.7861H40.1914V73.9149Z" fill="#B1A27B"/>
<path fill-rule="evenodd" clip-rule="evenodd" d="M44.0894 70.0052V68.8881H43.5309V67.2124H42.9723V68.8881H42.4138V70.0052H41.2966V76.1494H45.2066V70.0052H44.0894ZM42.4138 75.5908H41.8552V74.4737H42.4138V75.5908ZM42.4138 73.9386H41.8552V72.798H42.4138V73.9386ZM42.4138 72.2629H41.8552V71.1223H42.4138V72.2629ZM43.5309 75.5908H42.9723V74.4737H43.5309V75.5908ZM43.5309 73.9386H42.9723V72.798H43.5309V73.9386ZM43.5309 72.2629H42.9723V71.1223H43.5309V72.2629ZM44.648 75.5908H44.0894V74.4737H44.648V75.5908ZM44.648 73.9386H44.0894V72.798H44.648V73.9386ZM44.648 72.2629H44.0894V71.1223H44.648V72.2629Z" fill="#B1A27B"/>
<path fill-rule="evenodd" clip-rule="evenodd" d="M45.7651 71.1223V76.1494H47.9994V73.3566L45.7651 71.1223ZM46.8996 75.6254H46.3237V75.0144H46.8996V75.6254ZM46.8996 74.5083H46.3237V73.8973H46.8996V74.5083ZM46.8996 73.3912H46.3237V72.7801H46.8996V73.3912Z" fill="#B1A27B"/>
</g>
<path d="M53.531 92.1887H60.0966C60.0966 92.1887 59.9687 94.568 56.9257 94.568C53.8827 94.568 53.531 92.1887 53.531 92.1887Z" fill="#B1A27B"/>
<path d="M60.0967 91.1392H53.552V91.6745H60.0967V91.1392Z" fill="#B1A27B"/>
<path d="M54.1414 90.6035L56.8146 84.7534L59.5184 90.6035H60.0328L56.8244 83.3962L53.552 90.6035H54.1414Z" fill="#B1A27B"/>
<path d="M26.2817 92.1887H32.8473C32.8473 92.1887 32.7194 94.568 29.6764 94.568C26.6334 94.568 26.2817 92.1887 26.2817 92.1887Z" fill="#B1A27B"/>
<path d="M32.8472 91.1392H26.3025V91.6745H32.8472V91.1392Z" fill="#B1A27B"/>
<path d="M26.8919 90.6035L29.5637 84.7534L32.2689 90.6035H32.7833L29.5749 83.3962L26.3025 90.6035H26.8919Z" fill="#B1A27B"/>
<path d="M45.2946 83.0185H46.4414V81.1621H43.5083V82.6292H41.3563V81.1621H39.8466V83.0185H40.9935C40.9935 83.0185 41.9847 88.3903 37.2749 91.5622C37.2749 91.5622 41.4578 98.419 41.8915 101.391L42.3252 104.362H42.6881V93.5312C42.456 93.4268 42.2667 93.246 42.1518 93.0189C42.0369 92.7918 42.0033 92.5322 42.0566 92.2833C42.11 92.0344 42.247 91.8114 42.4449 91.6514C42.6428 91.4914 42.8896 91.4041 43.144 91.4041C43.3985 91.4041 43.6452 91.4914 43.8431 91.6514C44.041 91.8114 44.1781 92.0344 44.2314 92.2833C44.2848 92.5322 44.2512 92.7918 44.1363 93.0189C44.0214 93.246 43.8321 93.4268 43.6 93.5312V104.362H43.9628L44.3965 101.391C44.8303 98.419 49.0132 91.5622 49.0132 91.5622C44.3034 88.3903 45.2946 83.0185 45.2946 83.0185ZM40.4375 95.058H39.9412L38.2244 91.608C38.2244 91.608 40.5723 90.3871 41.0922 87.816C41.6121 85.2448 41.3855 83.4009 41.3855 83.4009H43.5083L40.4375 95.058Z" fill="#B1A27B"/>
<defs>
<clipPath id="clip0_8_369">
<rect width="63.9124" height="74.2601" fill="white" transform="translate(11.2344 53.9072)"/>
</clipPath>
<clipPath id="clip1_8_369">
<rect width="9.49555" height="9.49555" fill="white" transform="translate(38.5039 66.9331)"/>
</clipPath>
</defs>
</svg>
