<svg width="63" height="71" viewBox="0 0 63 71" fill="none" xmlns="http://www.w3.org/2000/svg">
<path d="M32.2356 58.3721C46.595 58.3721 58.2356 46.7315 58.2356 32.3721C58.2356 18.0127 46.595 6.37207 32.2356 6.37207C17.8762 6.37207 6.2356 18.0127 6.2356 32.3721C6.2356 46.7315 17.8762 58.3721 32.2356 58.3721Z" fill="white"/>
<g clip-path="url(#clip0_8_66)">
<path fill-rule="evenodd" clip-rule="evenodd" d="M42.2907 16.0281C41.6559 16.078 41.0224 16.1271 40.3901 16.1752C40.87 16.502 41.3507 16.829 41.8322 17.1561C42.4657 17.1068 43.0989 17.0578 43.7319 17.0091C43.252 16.6814 42.7697 16.3553 42.2907 16.0281ZM42.3944 15.8731C42.1986 15.2592 42.0036 14.6474 41.8095 14.0375C42.2907 14.3634 42.7723 14.6913 43.252 15.0166C43.4463 15.6272 43.6412 16.2393 43.8368 16.8529C43.3545 16.5248 42.8737 16.1981 42.3944 15.8728V15.8731ZM44.0686 17.5627C43.4329 17.5193 42.8013 17.4763 42.1666 17.4328C42.5977 17.8256 43.0273 18.2185 43.4556 18.6114C44.0904 18.6553 44.7241 18.6988 45.3568 18.7418C44.9286 18.3502 44.4982 17.9548 44.0686 17.5627ZM44.1935 17.4233C44.0882 16.7888 43.9816 16.1551 43.8738 15.5222C44.3056 15.9148 44.7358 16.3074 45.1646 16.7002C45.2702 17.3344 45.3768 17.9682 45.4842 18.6016C45.0532 18.2084 44.6243 17.8151 44.1935 17.4233ZM45.642 19.31C45.0215 19.1758 44.4005 19.0409 43.7789 18.9054C44.15 19.356 44.5197 19.8075 44.8882 20.2598C45.5097 20.3929 46.1313 20.5275 46.7531 20.6635C46.383 20.2116 46.0126 19.7605 45.642 19.31ZM45.7872 19.1891C45.773 18.5469 45.7574 17.9047 45.7403 17.2625C46.1087 17.7126 46.4804 18.1642 46.8487 18.6155C46.8641 19.2582 46.8797 19.9009 46.8955 20.5435C46.526 20.0927 46.1562 19.6413 45.7862 19.1892L45.7872 19.1891ZM46.9892 21.2419C46.3926 21.019 45.7972 20.796 45.2027 20.5728C45.5036 21.0722 45.8046 21.5719 46.1059 22.0717C46.7038 22.2975 47.2996 22.5218 47.8932 22.7446C47.5924 22.2443 47.2911 21.7434 46.9892 21.2419ZM47.1486 21.1445C47.225 20.507 47.3015 19.8676 47.3769 19.2314C47.6781 19.7301 47.9786 20.2324 48.2809 20.7315C48.206 21.37 48.1284 22.0067 48.053 22.6464C47.7497 22.1444 47.4503 21.6449 47.1486 21.1441V21.1445ZM48.0644 23.3306C47.4931 23.0489 46.9219 22.7677 46.351 22.4872C46.6022 23.0148 46.8557 23.5423 47.1072 24.0691C47.678 24.3524 48.2493 24.6339 48.8211 24.9136C48.5692 24.3865 48.317 23.8588 48.0644 23.3306ZM48.2313 23.2491C48.3704 22.6198 48.5076 21.9937 48.6447 21.3647C48.8974 21.8947 49.1504 22.4212 49.4011 22.9505C49.2633 23.5769 49.1252 24.2059 48.9889 24.8325C48.7382 24.303 48.4854 23.7768 48.2313 23.2491ZM48.8766 25.5499C48.3521 25.1852 47.8283 24.8212 47.3053 24.4578C47.4784 25.0157 47.6505 25.5759 47.8217 26.1384C48.3456 26.5005 48.8699 26.8637 49.3947 27.228C49.2208 26.6683 49.0481 26.109 48.8766 25.55V25.5499ZM49.0557 25.4933C49.2819 24.8933 49.5092 24.2932 49.7374 23.6931C49.9113 24.2514 50.0808 24.8118 50.2533 25.37C50.0268 25.9718 49.7997 26.5718 49.5722 27.1702C49.399 26.6115 49.2268 26.0522 49.0557 25.4924V25.4933ZM49.3969 27.8449C48.9121 27.4289 48.4269 27.0136 47.9414 26.5992C48.0572 27.1741 48.1735 27.7466 48.2891 28.3226C48.7753 28.7373 49.2589 29.152 49.7449 29.5674C49.628 28.9934 49.5124 28.4175 49.3969 27.8449ZM49.5797 27.8077C49.8657 27.2321 50.1515 26.6577 50.4372 26.0844C50.5524 26.6585 50.6687 27.2329 50.786 27.8077C50.4986 28.3814 50.2146 28.9555 49.9285 29.5289C49.8131 28.9549 49.6956 28.3807 49.5797 27.8077ZM49.6199 30.2007C49.203 29.7164 48.7857 29.2316 48.3677 28.7461C48.3975 29.3314 48.4252 29.9178 48.4537 30.5032C48.8718 30.9864 49.2894 31.4731 49.707 31.956C49.6796 31.3702 49.6489 30.7857 49.6199 30.2015V30.2007ZM49.8072 30.1901C50.1753 29.6662 50.5433 29.1426 50.9111 28.6192C50.9405 29.2044 50.9683 29.7877 50.9984 30.3745C50.628 30.8993 50.2621 31.4221 49.8943 31.9467C49.8642 31.3624 49.8365 30.7759 49.8072 30.1901ZM49.5532 32.5556C49.1873 32.0303 48.8209 31.5051 48.4539 30.9801C48.4239 31.5644 48.3941 32.1521 48.3645 32.738C48.7302 33.2605 49.0961 33.7859 49.4639 34.3093C49.4926 33.7251 49.5235 33.1408 49.5532 32.5556ZM49.7405 32.5647C50.1589 32.0814 50.579 31.5972 50.9956 31.1132C50.9671 31.7 50.9375 32.2857 50.9068 32.8701C50.4884 33.3538 50.0695 33.837 49.6501 34.3199C49.6814 33.7344 49.7105 33.1514 49.7405 32.5647ZM49.1849 34.8897C48.9002 34.3157 48.6156 33.7423 48.331 33.1694C48.2143 33.7417 48.0972 34.3151 47.9798 34.8897C48.2643 35.4634 48.5494 36.0381 48.835 36.6136C48.9513 36.0401 49.0691 35.4642 49.1849 34.8897ZM49.3679 34.9285C49.8531 34.5152 50.3391 34.1014 50.8259 33.6872C50.7074 34.2612 50.5925 34.8347 50.4748 35.4097C49.9884 35.8239 49.5027 36.2382 49.0178 36.6524C49.1348 36.0776 49.2515 35.503 49.3679 34.9285ZM48.5276 37.1626C48.3306 36.5503 48.1335 35.939 47.9363 35.3288C47.7358 35.879 47.5365 36.4287 47.3382 36.978C47.533 37.59 47.7313 38.2008 47.9274 38.8109C48.1273 38.2622 48.3259 37.7115 48.5276 37.1626ZM48.7021 37.2279C49.2446 36.891 49.7865 36.5549 50.3276 36.2196C50.1259 36.7677 49.9271 37.3169 49.7266 37.8696C49.1855 38.2054 48.6443 38.5415 48.1031 38.8779C48.3025 38.3279 48.5031 37.7763 48.7018 37.2279H48.7021ZM47.5821 39.3151C47.4448 38.6859 47.3095 38.0583 47.1717 37.4314C46.9191 37.9565 46.6662 38.4872 46.4142 39.0151C46.5515 39.6415 46.6896 40.2684 46.8245 40.8969C47.0779 40.3693 47.3304 39.842 47.5821 39.3151ZM47.7505 39.3957C48.3222 39.1152 48.8932 38.8326 49.4637 38.5527C49.2119 39.0795 48.9608 39.6085 48.7088 40.1355C48.1364 40.4163 47.5649 40.6979 46.9942 40.9801C47.2466 40.45 47.4987 39.924 47.7505 39.3957ZM46.3733 41.3354C46.3262 40.6961 46.28 40.0553 46.2347 39.413C45.91 39.8985 45.5869 40.3829 45.2603 40.8683C45.3062 41.5096 45.3509 42.1504 45.3988 42.7915C45.7233 42.3065 46.0481 41.8212 46.3733 41.3354ZM46.528 41.4428C47.1333 41.2485 47.7388 41.0537 48.3446 40.8586C48.0196 41.3432 47.6938 41.8299 47.3696 42.3145C46.7626 42.508 46.1568 42.7027 45.5524 42.8988C45.8772 42.4103 46.203 41.9276 46.528 41.4422V41.4428ZM44.9276 43.1816C44.9416 42.5384 44.9567 41.8956 44.9729 41.2532C44.6017 41.705 44.2323 42.1566 43.8646 42.608C43.8488 43.2502 43.8336 43.893 43.819 44.5363C44.1876 44.0829 44.5571 43.6313 44.9273 43.1816H44.9276ZM45.0702 43.3013C45.6913 43.1674 46.3126 43.0301 46.933 42.8967C46.5645 43.3468 46.195 43.7983 45.8246 44.2513C45.2051 44.3849 44.584 44.5197 43.9612 44.6557C44.3314 44.2047 44.7008 43.7532 45.0695 43.3013H45.0702ZM43.2473 44.8253C43.3514 44.1914 43.4567 43.5577 43.5631 42.9242C43.1336 43.3175 42.704 43.7105 42.2743 44.1033C42.1695 44.7383 42.0643 45.3726 41.9585 46.0061C42.3867 45.613 42.8163 45.2194 43.2473 44.8253ZM43.3735 44.9653C44.0046 44.9214 44.6396 44.8779 45.2739 44.8329C44.8449 45.2267 44.4136 45.6204 43.9854 46.0137C43.3506 46.0589 42.7166 46.103 42.0836 46.1462C42.5132 45.7521 42.9431 45.3584 43.3735 44.9653ZM41.377 46.2435C41.5714 45.6314 41.766 45.0197 41.9606 44.4084C41.4791 44.7347 40.9983 45.0617 40.518 45.3893C40.3219 46.0009 40.1296 46.6125 39.9337 47.2249C40.4151 46.8971 40.8953 46.5716 41.377 46.2435ZM41.4801 46.4003C42.1142 46.4477 42.7462 46.4976 43.3807 46.5459C42.9005 46.8739 42.4186 47.1993 41.9382 47.5282C41.3054 47.4796 40.6721 47.4307 40.0384 47.3814C40.5194 47.054 41.0007 46.7289 41.4801 46.4003ZM39.3531 47.4078C39.6051 46.8162 39.8573 46.2267 40.1096 45.6391C39.5997 45.9165 39.0897 46.1947 38.5798 46.4735C38.327 47.0631 38.0751 47.6526 37.8241 48.2422L39.3528 47.4078H39.3531ZM39.4426 47.5747C40.067 47.6852 40.6946 47.7949 41.3204 47.9036C40.8096 48.1839 40.2997 48.4629 39.7906 48.7405C39.1633 48.6297 38.5371 48.5196 37.912 48.4102C38.4209 48.1307 38.9308 47.8521 39.4418 47.5745L39.4426 47.5747ZM37.1859 48.2954C37.5209 47.7499 37.8555 47.2042 38.1895 46.6581C37.6471 46.8582 37.1007 47.0573 36.5575 47.2571C36.2201 47.8027 35.8871 48.348 35.5518 48.8953C36.0957 48.6942 36.6404 48.4942 37.1859 48.2952V48.2954ZM37.2503 48.4733C37.8522 48.6759 38.4552 48.8775 39.0594 49.0783C38.5145 49.2806 37.9696 49.4807 37.4246 49.6784C36.8227 49.4764 36.2184 49.2732 35.6138 49.0734C36.1589 48.8735 36.7045 48.672 37.2498 48.4733H37.2503ZM40.3338 15.393L39.0575 13.8722L40.9762 14.3355L42.2522 15.8568L40.3341 15.393H40.3338ZM34.4255 12.2285C35.9641 12.4945 37.4632 12.9561 38.8873 13.6023L38.7036 13.8783C37.3367 13.2632 35.9001 12.8207 34.4263 12.5607V12.2291L34.4255 12.2285ZM34.4255 13.6089C36.4904 13.9954 38.468 14.7607 40.2606 15.8671L40.0806 16.1384C38.3421 15.067 36.4262 14.3231 34.4255 13.9425V13.6089ZM34.4255 11.0007C36.9992 11.4178 39.4657 12.3467 41.6824 13.7337L41.5018 14.004C39.3386 12.6535 36.9344 11.7454 34.4255 11.3314V11.0007V11.0007Z" fill="#B1A27B"/>
<path fill-rule="evenodd" clip-rule="evenodd" d="M19.7105 16.0281C20.3432 16.078 20.9772 16.1271 21.6125 16.1752C21.1293 16.502 20.6478 16.829 20.1681 17.1561C19.5345 17.1068 18.9011 17.0578 18.268 17.0091C18.7481 16.6815 19.2289 16.3545 19.7105 16.0281ZM19.6055 15.8731C19.8013 15.2592 19.996 14.6474 20.1895 14.0375C19.7088 14.3634 19.2276 14.6913 18.7474 15.0166C18.5527 15.6275 18.3563 16.2405 18.1639 16.8529C18.6441 16.5248 19.1247 16.1981 19.6055 15.8728V15.8731ZM17.9309 17.5627C18.5658 17.5194 19.1991 17.476 19.8309 17.4328C19.4017 17.8256 18.9726 18.2187 18.5435 18.612C17.9087 18.6559 17.2749 18.6994 16.6421 18.7425C17.0717 18.3509 17.4999 17.9555 17.9308 17.5634L17.9309 17.5627ZM17.8053 17.4233C17.9126 16.7888 18.0186 16.1551 18.1234 15.5222C17.6947 15.9148 17.2654 16.3074 16.8356 16.7002C16.7277 17.3344 16.6214 17.9682 16.5166 18.6016C16.946 18.2084 17.3756 17.8156 17.8053 17.4233ZM16.356 19.31C16.9767 19.1758 17.5997 19.0398 18.2202 18.9054C17.8508 19.356 17.4808 19.8075 17.1105 20.2598C16.4904 20.393 15.8679 20.5283 15.2467 20.6635C15.6175 20.2117 15.9873 19.7606 16.356 19.31ZM16.2138 19.1891C16.2278 18.5469 16.2427 17.9047 16.2584 17.2625C15.8903 17.7126 15.5209 18.1636 15.1501 18.6155C15.1345 19.2582 15.1189 19.9009 15.1033 20.5435C15.4743 20.0926 15.8429 19.6405 16.2135 19.1892L16.2138 19.1891ZM15.0107 21.2419C15.6046 21.0196 16.1996 20.7967 16.7958 20.5735C16.4951 21.0729 16.1939 21.5725 15.8921 22.0723C15.2966 22.2982 14.7013 22.5224 14.1064 22.7452C14.4066 22.2449 14.7076 21.7441 15.0094 21.2425L15.0107 21.2419ZM14.8512 21.1445C14.7751 20.507 14.6972 19.8676 14.6229 19.2314C14.3223 19.7301 14.0194 20.2324 13.7175 20.7315C13.7939 21.37 13.87 22.0067 13.9475 22.6464C14.2487 22.1444 14.55 21.6437 14.8513 21.1441L14.8512 21.1445ZM13.9336 23.3312C14.504 23.0495 15.0753 22.7684 15.6476 22.4878C15.3938 23.0154 15.1443 23.543 14.8908 24.0698C14.3216 24.3531 13.7492 24.6332 13.178 24.9143C13.4287 24.3872 13.6821 23.8597 13.9336 23.3312ZM13.7664 23.2497C13.6295 22.6205 13.4909 21.9943 13.3552 21.3654C13.1017 21.8953 12.85 22.4218 12.5961 22.9511C12.7344 23.5776 12.8736 24.2065 13.0085 24.8331C13.2614 24.3036 13.5122 23.7775 13.7664 23.2497ZM13.1209 25.5505C13.6469 25.1858 14.171 24.8218 14.6933 24.4584C14.5216 25.0166 14.3482 25.5775 14.1763 26.139C13.6527 26.5012 13.1292 26.8644 12.6057 27.2286C12.7776 26.669 12.9493 26.1097 13.1209 25.5507V25.5505ZM12.9426 25.494C12.717 24.8939 12.488 24.2938 12.2612 23.6938C12.0881 24.2522 11.9151 24.8126 11.7448 25.3706C11.9726 25.9724 12.1995 26.5724 12.4253 27.1708C12.599 26.6129 12.7714 26.0539 12.9426 25.494ZM12.6015 27.8456C13.0873 27.4295 13.5723 27.0143 14.0566 26.5998C13.9411 27.1748 13.8254 27.7472 13.7097 28.3233C13.2238 28.7379 12.7387 29.1529 12.2545 29.5681C12.3706 28.9941 12.4848 28.4182 12.6015 27.8456ZM12.4184 27.8083C12.1314 27.2328 11.8461 26.6583 11.5626 26.085C11.4476 26.659 11.3285 27.2343 11.2141 27.8083C11.4996 28.3821 11.7852 28.9558 12.0708 29.5295C12.1862 28.9555 12.3021 28.3817 12.4184 27.8083ZM12.3783 30.2013C12.796 29.7167 13.215 29.2317 13.6304 28.7468C13.6021 29.332 13.5734 29.9177 13.5442 30.5038C13.127 30.9871 12.7106 31.4737 12.2918 31.9566C12.3206 31.3708 12.3495 30.7859 12.3783 30.2021V30.2013ZM12.191 30.1907C11.822 29.6669 11.4537 29.1432 11.0859 28.6198C11.0586 29.205 11.0281 29.7884 10.9993 30.3752C11.3691 30.8999 11.7351 31.4227 12.1039 31.9473C12.1327 31.363 12.1617 30.7775 12.191 30.1907ZM12.446 32.5556C12.8126 32.0303 13.1793 31.5051 13.5461 30.9801C13.5759 31.5644 13.6059 32.1521 13.6368 32.738C13.2703 33.2605 12.9031 33.7859 12.5349 34.3093C12.5054 33.7251 12.4758 33.1405 12.446 32.5556ZM12.2587 32.5647C11.8399 32.0815 11.4215 31.5978 11.0033 31.1134C11.0323 31.7002 11.0623 32.2858 11.0936 32.8703C11.5129 33.3539 11.9317 33.8372 12.3502 34.3201C12.319 33.7346 12.2895 33.1515 12.2593 32.5649L12.2587 32.5647ZM12.8151 34.8897C13.099 34.3157 13.3835 33.7423 13.6685 33.1694C13.7849 33.7417 13.902 34.3151 14.0199 34.8897C13.7341 35.4635 13.4501 36.0383 13.1677 36.6139C13.0491 36.0404 12.9314 35.4645 12.8151 34.89V34.8897ZM12.6313 34.9285C12.1461 34.5151 11.6604 34.1014 11.1743 33.6873C11.2915 34.2613 11.4086 34.8355 11.5255 35.4098C12.0099 35.8241 12.4956 36.2383 12.9824 36.6526C12.866 36.0778 12.7489 35.5032 12.6313 34.9287V34.9285ZM13.4723 37.1625C13.6687 36.5501 13.8653 35.9388 14.0622 35.3287C14.2636 35.8788 14.4639 36.4286 14.663 36.9779C14.466 37.5898 14.2692 38.2008 14.0725 38.8108C13.8705 38.2621 13.6704 37.7126 13.4723 37.1625ZM13.2967 37.2277C12.7561 36.8908 12.215 36.5547 11.6732 36.2194C11.8725 36.7676 12.0724 37.3176 12.2729 37.8695C12.8141 38.2053 13.3556 38.5414 13.8975 38.8777C13.6958 38.3277 13.4968 37.7761 13.2967 37.2277ZM14.4164 39.315C14.5539 38.6857 14.6911 38.0578 14.8281 37.4312C15.0813 37.9563 15.3329 38.487 15.5856 39.0149C15.4486 39.6414 15.311 40.2687 15.173 40.8968C14.9216 40.3691 14.6694 39.8419 14.4164 39.315ZM14.2492 39.3955C13.6757 39.1151 13.1076 38.8324 12.5336 38.5526C12.7865 39.0794 13.0385 39.6084 13.2909 40.1353C13.8629 40.4162 14.4353 40.6978 15.0037 40.98C14.7539 40.4499 14.5002 39.9239 14.2492 39.3955ZM15.6268 41.3354C15.6727 40.6961 15.7187 40.0553 15.7647 39.413C16.0891 39.8985 16.414 40.3836 16.7394 40.8683C16.6949 41.5096 16.647 42.1504 16.6027 42.7915C16.2771 42.3065 15.9518 41.8212 15.6268 41.3354ZM15.474 41.4428C14.8669 41.2485 14.2609 41.0537 13.656 40.8586C13.9804 41.3432 14.3056 41.8299 14.6301 42.3145C15.237 42.508 15.8425 42.7027 16.4465 42.8988C16.1228 42.4103 15.7987 41.9276 15.474 41.4422V41.4428ZM17.0736 43.1816C17.0581 42.5384 17.0432 41.8956 17.029 41.2532C17.3983 41.705 17.7678 42.1566 18.1373 42.608C18.1511 43.2504 18.1674 43.8933 18.1827 44.5363C17.8134 44.0829 17.4437 43.6313 17.0736 43.1816ZM16.9298 43.3013C16.3095 43.1674 15.6883 43.0301 15.0672 42.8967C15.4356 43.3468 15.8047 43.7983 16.1745 44.2513C16.7948 44.3849 17.416 44.5197 18.038 44.6557C17.6674 44.2047 17.298 43.7532 16.9297 43.3013H16.9298ZM18.7522 44.8253C18.6473 44.1914 18.542 43.5577 18.4364 42.9242C18.8662 43.3175 19.2956 43.7105 19.7246 44.1033C19.8307 44.7383 19.9349 45.372 20.0432 46.0061C19.6133 45.6135 19.183 45.2198 18.7522 44.8253ZM18.6273 44.9653C17.9942 44.9214 17.3607 44.8773 16.7271 44.8329C17.1554 45.2267 17.5847 45.6203 18.0148 46.0137C18.6488 46.0589 19.283 46.103 19.9174 46.1462C19.4876 45.7521 19.0576 45.3584 18.6273 44.9653ZM20.623 46.2435C20.4288 45.6314 20.2346 45.0197 20.0404 44.4084C20.5203 44.7348 21.0032 45.0617 21.482 45.3893C21.6775 46.0009 21.8718 46.6127 22.0651 47.2249C21.5852 46.8971 21.1038 46.5716 20.623 46.2435ZM20.5185 46.4003C19.8866 46.4477 19.2521 46.4976 18.6197 46.5459C19.1 46.8739 19.5811 47.1993 20.0613 47.5282C20.6938 47.4796 21.3278 47.4307 21.9631 47.3814C21.4792 47.054 21 46.7289 20.5185 46.4003ZM22.6483 47.4078C22.3935 46.8162 22.1434 46.2275 21.8898 45.6391C22.3997 45.9165 22.9096 46.1947 23.4196 46.4735C23.672 47.0631 23.9246 47.6526 24.1776 48.2422C23.6669 47.965 23.1569 47.6868 22.6478 47.4078H22.6483ZM22.5579 47.5747C21.9323 47.6859 21.3068 47.7956 20.6812 47.9036C21.1906 48.1839 21.7017 48.462 22.2096 48.7405C22.836 48.6297 23.4621 48.5196 24.0877 48.4102C23.5774 48.1307 23.0694 47.8521 22.5579 47.5745V47.5747ZM24.8149 48.2954C24.4793 47.7499 24.1443 47.2042 23.8097 46.6581C24.3532 46.8575 24.898 47.0571 25.4441 47.2568C25.7778 47.8024 26.1128 48.3485 26.4493 48.895C25.9047 48.6939 25.3599 48.4939 24.8149 48.2949V48.2954ZM24.7512 48.4733C24.1476 48.6759 23.5444 48.8775 22.9418 49.0783C23.4867 49.2806 24.0298 49.4797 24.5759 49.6784C25.1792 49.4764 25.7825 49.2732 26.3857 49.0734C25.8394 48.8735 25.293 48.672 24.7512 48.4733ZM21.6662 15.393L22.9419 13.8722L21.0239 14.3355L19.7474 15.8568L21.6662 15.393ZM27.5731 12.2285C26.0348 12.4949 24.5359 12.9565 23.1118 13.6023L23.295 13.8783C24.6623 13.2635 26.0991 12.821 27.5731 12.5607V12.2291V12.2285ZM27.5731 13.6089C25.5084 13.9958 23.531 14.7611 21.7383 15.8671L21.92 16.1384C23.6579 15.0672 25.5731 14.3232 27.5731 13.9425V13.6089ZM27.5731 11.0007C25.0001 11.4179 22.5343 12.3468 20.3183 13.7337L20.4986 14.004C22.6612 12.6536 25.0648 11.7455 27.5731 11.3314V11.0007V11.0007Z" fill="#B1A27B"/>
<path d="M30.9996 15.1514C35.2669 15.1514 39.1309 16.9012 41.9269 19.7308C44.7229 22.5604 46.454 26.4684 46.454 30.7846C46.454 35.1007 44.7242 39.0076 41.9269 41.8383C39.1297 44.669 35.2669 46.4177 30.9996 46.4177C26.7323 46.4177 22.8696 44.6679 20.0732 41.8383C17.2767 39.0087 15.5461 35.0995 15.5461 30.7846C15.5461 26.4696 17.2769 22.5596 20.0732 19.7308C22.8695 16.902 26.7334 15.1514 30.9996 15.1514ZM41.5374 20.1256C38.8404 17.3961 35.1142 15.708 31.0004 15.708C26.8865 15.708 23.1588 17.3959 20.4617 20.1259C17.7658 22.8524 16.0958 26.6217 16.0958 30.7849C16.0958 34.9455 17.7661 38.7156 20.4617 41.4448C23.1573 44.174 26.8845 45.8603 30.9996 45.8603C35.1147 45.8603 38.8404 44.1732 41.5374 41.4448C44.2345 38.7164 45.9039 34.9455 45.9039 30.7849C45.9039 26.6212 44.2356 22.8519 41.5374 20.1259V20.1256Z" fill="#B1A27B"/>
<path d="M36.4405 49.841C32.8849 50.8739 29.1137 50.8739 25.5581 49.841L26.5283 49.5153C26.6101 49.4887 26.6827 49.4392 26.7379 49.3726C26.7932 49.3061 26.8287 49.2251 26.8405 49.139C26.8854 49.0652 26.9091 48.9803 26.9091 48.8936C26.9091 48.807 26.8854 48.7221 26.8405 48.6482L26.1949 47.595C29.335 48.5111 32.6672 48.5111 35.8073 47.595L35.1604 48.6482C35.1016 48.8065 35.1006 48.9809 35.1576 49.1398C35.2146 49.2988 35.3258 49.432 35.4712 49.5153L36.4405 49.841Z" fill="#B1A27B"/>
</g>
<path d="M39.9297 24.1887C38.4604 24.1613 36.9496 25.0843 35.4397 25.8315C33.8345 26.6265 31.3675 26.675 31.3666 26.675C31.3657 26.675 28.8987 26.6247 27.2934 25.8315C25.7836 25.0843 24.2728 24.1613 22.8035 24.1887C21.3343 24.2161 20.0451 25.1956 20.091 26.8111C20.1369 28.4265 21.1797 29.0528 22.5316 29.0616C23.8834 29.0704 24.5271 28.1545 24.445 27.2465C24.3629 26.3385 23.577 26.1124 23.0393 26.176C22.5015 26.2396 22.0592 26.5938 22.4133 27.5556C22.4133 27.5556 21.3537 27.5371 21.5603 26.3482C21.7669 25.1594 23.6379 25.7044 24.3637 25.9852C25.139 26.2864 25.4613 26.7386 27.5477 27.3287C28.6444 27.6387 31.3666 27.6139 31.3666 27.6139C31.3666 27.6139 34.0888 27.6387 35.1854 27.3287C37.2719 26.7386 37.5942 26.2864 38.3694 25.9852C39.0953 25.7044 40.9636 25.1594 41.1729 26.3482C41.3822 27.5371 40.3199 27.5556 40.3199 27.5556C40.6731 26.5938 40.2316 26.2396 39.6939 26.176C39.1562 26.1124 38.3694 26.3394 38.2882 27.2465C38.207 28.1536 38.8524 29.0704 40.2016 29.0616C41.5508 29.0528 42.5971 28.4265 42.6422 26.8111C42.6872 25.1956 41.3998 24.2126 39.9297 24.1887Z" fill="#B1A27B"/>
<g clip-path="url(#clip1_8_66)">
<path fill-rule="evenodd" clip-rule="evenodd" d="M28.7739 22.1005V24.9387H29.8383V22.1005H28.7739ZM29.4835 24.5839H29.1213V23.8669H29.4835V24.5839ZM29.4909 23.5196H29.1216V22.8026H29.4909V23.5196Z" fill="#B1A27B"/>
<path fill-rule="evenodd" clip-rule="evenodd" d="M31.967 21.0362V20.3267H31.6122V19.2623H31.2575V20.3267H30.9027V21.0362H30.1931V24.9389H32.6766V21.0362H31.967ZM30.9027 24.5841H30.5479V23.8745H30.9027V24.5841ZM30.9027 23.5346H30.5479V22.8102H30.9027V23.5346ZM30.9027 22.4703H30.5479V21.7458H30.9027V22.4703ZM31.6122 24.5841H31.2575V23.8745H31.6122V24.5841ZM31.6122 23.5346H31.2575V22.8102H31.6122V23.5346ZM31.6122 22.4703H31.2575V21.7458H31.6122V22.4703ZM32.3218 24.5841H31.967V23.8745H32.3218V24.5841ZM32.3218 23.5346H31.967V22.8102H32.3218V23.5346ZM32.3218 22.4703H31.967V21.7458H32.3218V22.4703Z" fill="#B1A27B"/>
<path fill-rule="evenodd" clip-rule="evenodd" d="M33.0312 21.7458V24.9389H34.4504V23.165L33.0312 21.7458ZM33.7518 24.6061H33.386V24.218H33.7518V24.6061ZM33.7518 23.8965H33.386V23.5084H33.7518V23.8965ZM33.7518 23.187H33.386V22.7988H33.7518V23.187Z" fill="#B1A27B"/>
</g>
<path d="M37.9641 35.1263H42.1344C42.1344 35.1263 42.0532 36.6376 40.1203 36.6376C38.1875 36.6376 37.9641 35.1263 37.9641 35.1263Z" fill="#B1A27B"/>
<path d="M42.1343 34.4597H37.9773V34.7998H42.1343V34.4597Z" fill="#B1A27B"/>
<path d="M38.3517 34.1195L40.0496 30.4037L41.767 34.1195H42.0937L40.0558 29.5416L37.9773 34.1195H38.3517Z" fill="#B1A27B"/>
<path d="M20.656 35.1263H24.8263C24.8263 35.1263 24.7451 36.6376 22.8122 36.6376C20.8794 36.6376 20.656 35.1263 20.656 35.1263Z" fill="#B1A27B"/>
<path d="M24.8265 34.4597H20.6694V34.7998H24.8265V34.4597Z" fill="#B1A27B"/>
<path d="M21.0438 34.1195L22.7409 30.4037L24.4592 34.1195H24.7859L22.748 29.5416L20.6694 34.1195H21.0438Z" fill="#B1A27B"/>
<path d="M32.7325 29.3017H33.461V28.1226H31.5979V29.0544H30.2311V28.1226H29.2722V29.3017H30.0006C30.0006 29.3017 30.6302 32.7137 27.6387 34.7284C27.6387 34.7284 30.2955 39.0837 30.571 40.9712L30.8465 42.8587H31.077V35.9791C30.9296 35.9128 30.8093 35.7979 30.7363 35.6537C30.6633 35.5094 30.642 35.3445 30.6759 35.1864C30.7098 35.0284 30.7968 34.8867 30.9225 34.785C31.0482 34.6834 31.205 34.628 31.3666 34.628C31.5282 34.628 31.6849 34.6834 31.8106 34.785C31.9363 34.8867 32.0234 35.0284 32.0573 35.1864C32.0911 35.3445 32.0698 35.5094 31.9968 35.6537C31.9238 35.7979 31.8036 35.9128 31.6562 35.9791V42.8587H31.8867L32.1621 40.9712C32.4376 39.0837 35.0945 34.7284 35.0945 34.7284C32.103 32.7137 32.7325 29.3017 32.7325 29.3017ZM29.6474 36.9489H29.3322L28.2417 34.7575C28.2417 34.7575 29.7331 33.982 30.0633 32.3489C30.3935 30.7158 30.2496 29.5446 30.2496 29.5446H31.5979L29.6474 36.9489Z" fill="#B1A27B"/>
<path d="M53.744 9.15077C47.843 3.24984 39.9971 0 31.6518 0C23.3064 0 15.4605 3.24984 9.5596 9.15077C3.65853 15.052 0.408691 22.8977 0.408691 31.2431C0.408691 45.9659 10.7015 58.6766 25.0005 61.7741L31.6518 70.6426L38.3032 61.774C52.6021 58.6765 62.8949 45.9659 62.8949 31.2431C62.8949 22.8977 59.645 15.052 53.744 9.15077ZM31.6518 8.15638C44.3057 8.15638 54.6003 18.4511 54.6003 31.1049C54.6003 43.7586 44.3057 54.0533 31.6518 54.0533C18.9979 54.0533 8.70332 43.7586 8.70332 31.1049C8.70332 18.4511 18.9979 8.15638 31.6518 8.15638Z" fill="#1B2C41"/>
<defs>
<clipPath id="clip0_8_66">
<rect width="40" height="47" fill="white" transform="translate(11 11)"/>
</clipPath>
<clipPath id="clip1_8_66">
<rect width="6.03131" height="6.03131" fill="white" transform="translate(28.4192 19.0848)"/>
</clipPath>
</defs>
</svg>
