<svg width="15" height="15" viewBox="0 0 15 15" fill="none" xmlns="http://www.w3.org/2000/svg">
<path d="M14.7391 13.4866L12.6222 11.3785C13.5898 10.1458 14.1148 8.62352 14.1128 7.05642C14.1128 5.66079 13.699 4.29651 12.9236 3.13608C12.1482 1.97566 11.0462 1.07122 9.75679 0.537141C8.4674 0.00305741 7.04859 -0.136683 5.67978 0.13559C4.31097 0.407864 3.05364 1.07992 2.06678 2.06678C1.07992 3.05364 0.407864 4.31097 0.13559 5.67978C-0.136683 7.04859 0.00305741 8.4674 0.537141 9.75679C1.07122 11.0462 1.97566 12.1482 3.13608 12.9236C4.29651 13.699 5.66079 14.1128 7.05642 14.1128C8.62352 14.1148 10.1458 13.5898 11.3785 12.6222L13.4866 14.7391C13.5686 14.8218 13.6661 14.8874 13.7736 14.9322C13.8811 14.9769 13.9964 15 14.1128 15C14.2293 15 14.3446 14.9769 14.4521 14.9322C14.5595 14.8874 14.6571 14.8218 14.7391 14.7391C14.8218 14.6571 14.8874 14.5595 14.9322 14.4521C14.9769 14.3446 15 14.2293 15 14.1128C15 13.9964 14.9769 13.8811 14.9322 13.7736C14.8874 13.6661 14.8218 13.5686 14.7391 13.4866ZM1.76411 7.05642C1.76411 6.0097 2.0745 4.98648 2.65602 4.11617C3.23755 3.24585 4.0641 2.56752 5.03114 2.16696C5.99818 1.7664 7.06229 1.66159 8.0889 1.8658C9.11551 2.07 10.0585 2.57405 10.7986 3.31419C11.5388 4.05433 12.0428 4.99733 12.247 6.02394C12.4512 7.05055 12.3464 8.11465 11.9459 9.0817C11.5453 10.0487 10.867 10.8753 9.99667 11.4568C9.12635 12.0383 8.10314 12.3487 7.05642 12.3487C5.65281 12.3487 4.30669 11.7911 3.31419 10.7986C2.32169 9.80615 1.76411 8.46003 1.76411 7.05642Z" fill="black"/>
</svg>
