<svg width="82" height="11" viewBox="0 0 82 11" fill="none" xmlns="http://www.w3.org/2000/svg">
<path d="M5.42953 0.482727L6.49162 3.90451L10.0741 3.85723L7.14804 5.92474L8.30006 9.3173L5.42953 7.1733L2.559 9.3173L3.71102 5.92474L0.78492 3.85723L4.36744 3.90451L5.42953 0.482727Z" fill="#B1A27B"/>
<path d="M23.1969 0.482727L24.259 3.90451L27.8415 3.85723L24.9154 5.92474L26.0674 9.3173L23.1969 7.1733L20.3263 9.3173L21.4784 5.92474L18.5523 3.85723L22.1348 3.90451L23.1969 0.482727Z" fill="#B1A27B"/>
<path d="M40.964 0.482727L42.026 3.90451L45.6086 3.85723L42.6825 5.92474L43.8345 9.3173L40.964 7.1733L38.0934 9.3173L39.2454 5.92474L36.3193 3.85723L39.9019 3.90451L40.964 0.482727Z" fill="#B1A27B"/>
<path d="M58.7313 0.482727L59.7934 3.90451L63.3759 3.85723L60.4498 5.92474L61.6018 9.3173L58.7313 7.1733L55.8608 9.3173L57.0128 5.92474L54.0867 3.85723L57.6692 3.90451L58.7313 0.482727Z" fill="#B1A27B"/>
<path d="M76.4986 0.482727L77.5607 3.90451L81.1432 3.85723L78.2171 5.92474L79.3691 9.3173L76.4986 7.1733L73.6281 9.3173L74.7801 5.92474L71.854 3.85723L75.4365 3.90451L76.4986 0.482727Z" fill="#B1A27B"/>
</svg>
