<svg width="20" height="20" viewBox="0 0 20 20" fill="none" xmlns="http://www.w3.org/2000/svg">
<path d="M10 20C15.5142 20 20 15.5142 20 10C20 4.48583 15.5142 0 10 0C4.48583 0 0 4.48583 0 10C0 15.5142 4.48583 20 10 20ZM10 1.25C14.825 1.25 18.75 5.175 18.75 10C18.75 14.825 14.825 18.75 10 18.75C5.175 18.75 1.25 14.825 1.25 10C1.25 5.175 5.175 1.25 10 1.25Z" fill="#2F3658"/>
<path d="M6.57997 11.7959L7.88664 11.2284L7.51997 11.5959C7.40247 11.7134 7.33664 11.8726 7.33664 12.0376V14.4834C7.33664 15.0434 8.0133 15.3151 8.4033 14.9251L9.71497 13.6134L12.5733 15.0426C12.9433 15.2276 13.3908 15.0084 13.4675 14.5951L15.0983 5.62759C15.1841 5.14509 14.7091 4.75509 14.255 4.93342L3.6583 9.08092C3.1833 9.26592 3.11997 9.91592 3.54997 10.1901L5.99497 11.7501C6.16997 11.8618 6.3908 11.8793 6.57997 11.7959ZM13.6683 6.50675L12.3875 13.5526L9.8708 12.2951C9.62747 12.1734 9.33747 12.2243 9.14997 12.4126L8.58664 12.9759V12.2984L11.0925 9.79259C11.5783 9.30676 11.0316 8.50509 10.4016 8.77759L6.38747 10.5193L5.25914 9.79926L13.6683 6.50675Z" fill="#2F3658"/>
</svg>
