<svg width="20" height="20" viewBox="0 0 20 20" fill="none" xmlns="http://www.w3.org/2000/svg">
<path fill-rule="evenodd" clip-rule="evenodd" d="M16.8536 3.31488C15.0675 1.53525 12.6921 0.554755 10.1616 0.553711C4.94709 0.553711 0.703277 4.77711 0.701179 9.96801C0.70048 11.6274 1.13605 13.2472 1.96395 14.675L0.621826 19.5537L5.63692 18.2444C7.01878 18.9946 8.5745 19.39 10.1577 19.3904H10.1617C15.3756 19.3904 19.6198 15.1667 19.6218 9.97555C19.6229 7.45977 18.6398 5.09439 16.8536 3.31488ZM10.1616 17.8004H10.1583C8.74742 17.7998 7.36369 17.4225 6.15627 16.7096L5.86927 16.54L2.89324 17.3169L3.68758 14.4293L3.50056 14.1332C2.71344 12.8872 2.2978 11.4472 2.2985 9.96859C2.30013 5.65405 5.82755 2.14385 10.1647 2.14385C12.2649 2.14454 14.2392 2.95956 15.7237 4.43871C17.2083 5.91787 18.0253 7.88397 18.0246 9.97497C18.0228 14.2899 14.4956 17.8004 10.1616 17.8004ZM14.4746 11.9396C14.2383 11.8217 13.0761 11.2528 12.8593 11.1742C12.6428 11.0957 12.4851 11.0566 12.3276 11.292C12.17 11.5274 11.717 12.0574 11.5791 12.2143C11.4411 12.3713 11.3034 12.391 11.067 12.2732C10.8305 12.1555 10.0689 11.907 9.16598 11.1055C8.46333 10.4817 7.98896 9.71138 7.851 9.47596C7.71327 9.24032 7.84983 9.12528 7.95471 8.99586C8.21059 8.67962 8.46683 8.34807 8.5456 8.19117C8.62449 8.03415 8.58499 7.89673 8.52579 7.77902C8.46683 7.66132 7.99409 6.50339 7.79716 6.03221C7.60513 5.57368 7.41042 5.63561 7.26523 5.62842C7.1275 5.62158 6.96984 5.62018 6.81218 5.62018C6.65464 5.62018 6.39852 5.67898 6.18179 5.91462C5.96517 6.15015 5.35458 6.7192 5.35458 7.87713C5.35458 9.03506 6.2016 10.1537 6.31975 10.3107C6.43791 10.4677 7.98663 12.8439 10.3578 13.8628C10.9218 14.1054 11.362 14.25 11.7054 14.3584C12.2717 14.5375 12.7869 14.5122 13.1942 14.4516C13.6484 14.384 14.5926 13.8825 14.7898 13.333C14.9867 12.7835 14.9867 12.3125 14.9275 12.2143C14.8686 12.1162 14.7109 12.0574 14.4746 11.9396Z" fill="#2F3658"/>
</svg>
